{
	"asset":{
		"generator":"Khronos glTF Blender I/O v4.3.47",
		"version":"2.0"
	},
	"scene":0,
	"scenes":[
		{
			"name":"Scene",
			"nodes":[
				0,
				1,
				2,
				3,
				4,
				5,
				6,
				7,
				8,
				9,
				10,
				11,
				12,
				13,
				14,
				15,
				16,
				17,
				18
			]
		}
	],
	"nodes":[
		{
			"mesh":0,
			"name":"6Noha",
			"scale":[
				0.05478157475590706,
				0.4999999403953552,
				0.05478157475590706
			],
			"translation":[
				0.8999999761581421,
				-0.5,
				0
			]
		},
		{
			"mesh":1,
			"name":"1Noha1/4",
			"scale":[
				0.05000000074505806,
				0.5,
				0.05000000074505806
			],
			"translation":[
				0.8999999761581421,
				-0.5,
				-0.8999999761581421
			]
		},
		{
			"mesh":2,
			"name":"1Noha2/4",
			"scale":[
				0.05000000074505806,
				0.5,
				0.05000000074505806
			],
			"translation":[
				-0.8999999761581421,
				-0.5,
				-0.8999999761581421
			]
		},
		{
			"mesh":3,
			"name":"1Noha3/4",
			"scale":[
				0.05000000074505806,
				0.5,
				0.05000000074505806
			],
			"translation":[
				-0.8999999761581421,
				-0.5,
				0.8999999761581421
			]
		},
		{
			"mesh":4,
			"name":"1Noha4/4",
			"scale":[
				0.05000000074505806,
				0.5,
				0.05000000074505806
			],
			"translation":[
				0.8999999761581421,
				-0.5,
				0.8999999761581421
			]
		},
		{
			"mesh":5,
			"name":"2Noha1/4",
			"scale":[
				0.05000000074505806,
				0.5,
				0.05000000074505806
			],
			"translation":[
				0.8999999761581421,
				-0.5,
				0
			]
		},
		{
			"mesh":6,
			"name":"2Noha2/4",
			"scale":[
				0.05000000074505806,
				0.5,
				0.05000000074505806
			],
			"translation":[
				0,
				-0.5,
				-0.8999999761581421
			]
		},
		{
			"mesh":7,
			"name":"2Noha3/4",
			"scale":[
				0.05000000074505806,
				0.5,
				0.05000000074505806
			],
			"translation":[
				-0.8999999761581421,
				-0.5,
				0
			]
		},
		{
			"mesh":8,
			"name":"2Noha4/4",
			"scale":[
				0.05000000074505806,
				0.5,
				0.05000000074505806
			],
			"translation":[
				0,
				-0.5,
				0.8999999761581421
			]
		},
		{
			"mesh":9,
			"name":"3Noha1",
			"scale":[
				1,
				1,
				0.17267262935638428
			]
		},
		{
			"mesh":10,
			"name":"4Noha1",
			"rotation":[
				0,
				0.7071068286895752,
				0,
				0.7071067094802856
			],
			"scale":[
				-0.10057611763477325,
				-1.0003492832183838,
				-0.9803494215011597
			],
			"translation":[
				-0.7647961974143982,
				0,
				-0.7647961378097534
			]
		},
		{
			"mesh":11,
			"name":"5oha1.001",
			"rotation":[
				0.7071068286895752,
				0,
				-0.7071068286895752,
				0
			],
			"scale":[
				-0.10057611763477325,
				-1.000349521636963,
				-0.9803494215011597
			],
			"translation":[
				-0.7647961974143982,
				0,
				-0.7647961378097534
			]
		},
		{
			"mesh":12,
			"name":"Ctverec",
			"scale":[
				1,
				0.015000004321336746,
				1
			]
		},
		{
			"mesh":13,
			"name":"Cube",
			"rotation":[
				0,
				1,
				0,
				0
			],
			"scale":[
				-0.06273291260004044,
				-0.013675720430910587,
				-0.10100000351667404
			],
			"translation":[
				3.511363983154297,
				1.2890312671661377,
				0
			]
		},
		{
			"mesh":14,
			"name":"hexagon",
			"scale":[
				1.2000000476837158,
				1,
				1.2000000476837158
			]
		},
		{
			"mesh":15,
			"name":"hexagon45",
			"scale":[
				1.2000000476837158,
				1,
				1.2000000476837158
			]
		},
		{
			"mesh":16,
			"name":"Kruh",
			"scale":[
				1,
				0.014999999664723873,
				1
			]
		},
		{
			"mesh":17,
			"name":"Natural",
			"scale":[
				1,
				0.029999971389770508,
				1.600000023841858
			],
			"translation":[
				0,
				1.4340499639511108,
				0
			]
		},
		{
			"mesh":18,
			"name":"7Noha.001",
			"rotation":[
				-0.3813881576061249,
				-0.9243531823158264,
				0,
				0.010691516101360321
			],
			"scale":[
				0.04999999329447746,
				0.4999999701976776,
				0.04999999329447746
			],
			"translation":[
				0.8999999761581421,
				-0.5,
				-0.8999999761581421
			]
		}
	],
	"materials":[
		{
			"doubleSided":true,
			"name":"texture2.003",
			"pbrMetallicRoughness":{
				"metallicFactor":0,
				"metallicRoughnessTexture":{
					"index":0
				}
			}
		}
	],
	"meshes":[
		{
			"name":"Cylinder.007",
			"primitives":[
				{
					"attributes":{
						"POSITION":0,
						"NORMAL":1,
						"TEXCOORD_0":2
					},
					"indices":3
				}
			]
		},
		{
			"name":"Cube.041",
			"primitives":[
				{
					"attributes":{
						"POSITION":4,
						"NORMAL":5,
						"TEXCOORD_0":6
					},
					"indices":7
				}
			]
		},
		{
			"name":"Cube.044",
			"primitives":[
				{
					"attributes":{
						"POSITION":8,
						"NORMAL":9,
						"TEXCOORD_0":10
					},
					"indices":7
				}
			]
		},
		{
			"name":"Cube.043",
			"primitives":[
				{
					"attributes":{
						"POSITION":11,
						"NORMAL":12,
						"TEXCOORD_0":13
					},
					"indices":7
				}
			]
		},
		{
			"name":"Cube.042",
			"primitives":[
				{
					"attributes":{
						"POSITION":14,
						"NORMAL":15,
						"TEXCOORD_0":16
					},
					"indices":7
				}
			]
		},
		{
			"name":"Cube.045",
			"primitives":[
				{
					"attributes":{
						"POSITION":17,
						"NORMAL":18,
						"TEXCOORD_0":19
					},
					"indices":7
				}
			]
		},
		{
			"name":"Cube.046",
			"primitives":[
				{
					"attributes":{
						"POSITION":20,
						"NORMAL":21,
						"TEXCOORD_0":22
					},
					"indices":7
				}
			]
		},
		{
			"name":"Cube.047",
			"primitives":[
				{
					"attributes":{
						"POSITION":23,
						"NORMAL":24,
						"TEXCOORD_0":25
					},
					"indices":7
				}
			]
		},
		{
			"name":"Cube.048",
			"primitives":[
				{
					"attributes":{
						"POSITION":26,
						"NORMAL":27,
						"TEXCOORD_0":28
					},
					"indices":7
				}
			]
		},
		{
			"name":"Cube.052",
			"primitives":[
				{
					"attributes":{
						"POSITION":29,
						"NORMAL":30,
						"TEXCOORD_0":31
					},
					"indices":32
				}
			]
		},
		{
			"name":"Cube.049",
			"primitives":[
				{
					"attributes":{
						"POSITION":33,
						"NORMAL":34,
						"TEXCOORD_0":35
					},
					"indices":36
				}
			]
		},
		{
			"name":"Cube.051",
			"primitives":[
				{
					"attributes":{
						"POSITION":37,
						"NORMAL":38,
						"TEXCOORD_0":39
					},
					"indices":36
				}
			]
		},
		{
			"name":"Cube.039",
			"primitives":[
				{
					"attributes":{
						"POSITION":40,
						"NORMAL":41,
						"TEXCOORD_0":42
					},
					"indices":43,
					"material":0
				}
			]
		},
		{
			"name":"Cube.050",
			"primitives":[
				{
					"attributes":{
						"POSITION":44,
						"NORMAL":45,
						"TEXCOORD_0":46
					},
					"indices":47
				}
			]
		},
		{
			"name":"Circle.009",
			"primitives":[
				{
					"attributes":{
						"POSITION":48,
						"NORMAL":49,
						"TEXCOORD_0":50
					},
					"indices":51
				}
			]
		},
		{
			"name":"Circle.010",
			"primitives":[
				{
					"attributes":{
						"POSITION":52,
						"NORMAL":53,
						"TEXCOORD_0":54
					},
					"indices":55
				}
			]
		},
		{
			"name":"Cylinder.009",
			"primitives":[
				{
					"attributes":{
						"POSITION":56,
						"NORMAL":57,
						"TEXCOORD_0":58
					},
					"indices":3
				}
			]
		},
		{
			"name":"Cube.040",
			"primitives":[
				{
					"attributes":{
						"POSITION":59,
						"NORMAL":60,
						"TEXCOORD_0":61
					},
					"indices":62
				}
			]
		},
		{
			"name":"Cube.059",
			"primitives":[
				{
					"attributes":{
						"POSITION":63,
						"NORMAL":64,
						"TEXCOORD_0":65
					},
					"indices":66
				}
			]
		}
	],
	"textures":[
		{
			"sampler":0,
			"source":0
		}
	],
	"images":[
		{
			"mimeType":"image/png",
			"name":"Wood10_4K_Roughness",
			"uri":"Wood10_4K_Roughness.png"
		}
	],
	"accessors":[
		{
			"bufferView":0,
			"componentType":5126,
			"count":378,
			"max":[
				0.9936952590942383,
				1.0000001192092896,
				0.9936952590942383
			],
			"min":[
				-0.9936952590942383,
				-1.0000001192092896,
				-0.9936952590942383
			],
			"type":"VEC3"
		},
		{
			"bufferView":1,
			"componentType":5126,
			"count":378,
			"type":"VEC3"
		},
		{
			"bufferView":2,
			"componentType":5126,
			"count":378,
			"type":"VEC2"
		},
		{
			"bufferView":3,
			"componentType":5123,
			"count":1074,
			"type":"SCALAR"
		},
		{
			"bufferView":4,
			"componentType":5126,
			"count":24,
			"max":[
				1,
				1,
				1
			],
			"min":[
				-1,
				-1,
				-1
			],
			"type":"VEC3"
		},
		{
			"bufferView":5,
			"componentType":5126,
			"count":24,
			"type":"VEC3"
		},
		{
			"bufferView":6,
			"componentType":5126,
			"count":24,
			"type":"VEC2"
		},
		{
			"bufferView":7,
			"componentType":5123,
			"count":36,
			"type":"SCALAR"
		},
		{
			"bufferView":8,
			"componentType":5126,
			"count":24,
			"max":[
				1,
				1,
				1
			],
			"min":[
				-1,
				-1,
				-1
			],
			"type":"VEC3"
		},
		{
			"bufferView":9,
			"componentType":5126,
			"count":24,
			"type":"VEC3"
		},
		{
			"bufferView":10,
			"componentType":5126,
			"count":24,
			"type":"VEC2"
		},
		{
			"bufferView":11,
			"componentType":5126,
			"count":24,
			"max":[
				1,
				1,
				1
			],
			"min":[
				-1,
				-1,
				-1
			],
			"type":"VEC3"
		},
		{
			"bufferView":12,
			"componentType":5126,
			"count":24,
			"type":"VEC3"
		},
		{
			"bufferView":13,
			"componentType":5126,
			"count":24,
			"type":"VEC2"
		},
		{
			"bufferView":14,
			"componentType":5126,
			"count":24,
			"max":[
				1,
				1,
				1
			],
			"min":[
				-1,
				-1,
				-1
			],
			"type":"VEC3"
		},
		{
			"bufferView":15,
			"componentType":5126,
			"count":24,
			"type":"VEC3"
		},
		{
			"bufferView":16,
			"componentType":5126,
			"count":24,
			"type":"VEC2"
		},
		{
			"bufferView":17,
			"componentType":5126,
			"count":24,
			"max":[
				1,
				1,
				1
			],
			"min":[
				-1,
				-1,
				-1
			],
			"type":"VEC3"
		},
		{
			"bufferView":18,
			"componentType":5126,
			"count":24,
			"type":"VEC3"
		},
		{
			"bufferView":19,
			"componentType":5126,
			"count":24,
			"type":"VEC2"
		},
		{
			"bufferView":20,
			"componentType":5126,
			"count":24,
			"max":[
				1,
				1,
				1
			],
			"min":[
				-1,
				-1,
				-1
			],
			"type":"VEC3"
		},
		{
			"bufferView":21,
			"componentType":5126,
			"count":24,
			"type":"VEC3"
		},
		{
			"bufferView":22,
			"componentType":5126,
			"count":24,
			"type":"VEC2"
		},
		{
			"bufferView":23,
			"componentType":5126,
			"count":24,
			"max":[
				1,
				1,
				1
			],
			"min":[
				-1,
				-1,
				-1
			],
			"type":"VEC3"
		},
		{
			"bufferView":24,
			"componentType":5126,
			"count":24,
			"type":"VEC3"
		},
		{
			"bufferView":25,
			"componentType":5126,
			"count":24,
			"type":"VEC2"
		},
		{
			"bufferView":26,
			"componentType":5126,
			"count":24,
			"max":[
				1,
				1,
				1
			],
			"min":[
				-1,
				-1,
				-1
			],
			"type":"VEC3"
		},
		{
			"bufferView":27,
			"componentType":5126,
			"count":24,
			"type":"VEC3"
		},
		{
			"bufferView":28,
			"componentType":5126,
			"count":24,
			"type":"VEC2"
		},
		{
			"bufferView":29,
			"componentType":5126,
			"count":48,
			"max":[
				1,
				1,
				1
			],
			"min":[
				-1,
				-1,
				-1
			],
			"type":"VEC3"
		},
		{
			"bufferView":30,
			"componentType":5126,
			"count":48,
			"type":"VEC3"
		},
		{
			"bufferView":31,
			"componentType":5126,
			"count":48,
			"type":"VEC2"
		},
		{
			"bufferView":32,
			"componentType":5123,
			"count":96,
			"type":"SCALAR"
		},
		{
			"bufferView":33,
			"componentType":5126,
			"count":48,
			"max":[
				1,
				1,
				1
			],
			"min":[
				-1,
				-1,
				-1
			],
			"type":"VEC3"
		},
		{
			"bufferView":34,
			"componentType":5126,
			"count":48,
			"type":"VEC3"
		},
		{
			"bufferView":35,
			"componentType":5126,
			"count":48,
			"type":"VEC2"
		},
		{
			"bufferView":36,
			"componentType":5123,
			"count":96,
			"type":"SCALAR"
		},
		{
			"bufferView":37,
			"componentType":5126,
			"count":48,
			"max":[
				1,
				1,
				1
			],
			"min":[
				-1,
				-1,
				-1
			],
			"type":"VEC3"
		},
		{
			"bufferView":38,
			"componentType":5126,
			"count":48,
			"type":"VEC3"
		},
		{
			"bufferView":39,
			"componentType":5126,
			"count":48,
			"type":"VEC2"
		},
		{
			"bufferView":40,
			"componentType":5126,
			"count":24,
			"max":[
				1,
				1,
				1
			],
			"min":[
				-1,
				-1,
				-1
			],
			"type":"VEC3"
		},
		{
			"bufferView":41,
			"componentType":5126,
			"count":24,
			"type":"VEC3"
		},
		{
			"bufferView":42,
			"componentType":5126,
			"count":24,
			"type":"VEC2"
		},
		{
			"bufferView":43,
			"componentType":5123,
			"count":36,
			"type":"SCALAR"
		},
		{
			"bufferView":44,
			"componentType":5126,
			"count":255,
			"max":[
				8.448515892028809,
				1,
				4.267326831817627
			],
			"min":[
				-8.448515892028809,
				-44.1191291809082,
				-4.267326831817627
			],
			"type":"VEC3"
		},
		{
			"bufferView":45,
			"componentType":5126,
			"count":255,
			"type":"VEC3"
		},
		{
			"bufferView":46,
			"componentType":5126,
			"count":255,
			"type":"VEC2"
		},
		{
			"bufferView":47,
			"componentType":5123,
			"count":540,
			"type":"SCALAR"
		},
		{
			"bufferView":48,
			"componentType":5126,
			"count":48,
			"max":[
				0.8660253882408142,
				0.03099999949336052,
				1
			],
			"min":[
				-0.8660253882408142,
				-0.0010000000474974513,
				-1
			],
			"type":"VEC3"
		},
		{
			"bufferView":49,
			"componentType":5126,
			"count":48,
			"type":"VEC3"
		},
		{
			"bufferView":50,
			"componentType":5126,
			"count":48,
			"type":"VEC2"
		},
		{
			"bufferView":51,
			"componentType":5123,
			"count":96,
			"type":"SCALAR"
		},
		{
			"bufferView":52,
			"componentType":5126,
			"count":84,
			"max":[
				0.8660253882408142,
				0.04999999701976776,
				1
			],
			"min":[
				-0.8660253882408142,
				-0.019999999552965164,
				-1
			],
			"type":"VEC3"
		},
		{
			"bufferView":53,
			"componentType":5126,
			"count":84,
			"type":"VEC3"
		},
		{
			"bufferView":54,
			"componentType":5126,
			"count":84,
			"type":"VEC2"
		},
		{
			"bufferView":55,
			"componentType":5123,
			"count":132,
			"type":"SCALAR"
		},
		{
			"bufferView":56,
			"componentType":5126,
			"count":378,
			"max":[
				0.9936952590942383,
				1.0000001192092896,
				0.9936952590942383
			],
			"min":[
				-0.9936952590942383,
				-1.0000001192092896,
				-0.9936952590942383
			],
			"type":"VEC3"
		},
		{
			"bufferView":57,
			"componentType":5126,
			"count":378,
			"type":"VEC3"
		},
		{
			"bufferView":58,
			"componentType":5126,
			"count":378,
			"type":"VEC2"
		},
		{
			"bufferView":59,
			"componentType":5126,
			"count":9518,
			"max":[
				1.0522656440734863,
				1,
				1.0334933996200562
			],
			"min":[
				-1.039326786994934,
				-1,
				-1.0390123128890991
			],
			"type":"VEC3"
		},
		{
			"bufferView":60,
			"componentType":5126,
			"count":9518,
			"type":"VEC3"
		},
		{
			"bufferView":61,
			"componentType":5126,
			"count":9518,
			"type":"VEC2"
		},
		{
			"bufferView":62,
			"componentType":5123,
			"count":17829,
			"type":"SCALAR"
		},
		{
			"bufferView":63,
			"componentType":5126,
			"count":80,
			"max":[
				9.622990608215332,
				0.9629546999931335,
				1.099730372428894
			],
			"min":[
				-9.799452781677246,
				-0.9806023836135864,
				-1.1017866134643555
			],
			"type":"VEC3"
		},
		{
			"bufferView":64,
			"componentType":5126,
			"count":80,
			"type":"VEC3"
		},
		{
			"bufferView":65,
			"componentType":5126,
			"count":80,
			"type":"VEC2"
		},
		{
			"bufferView":66,
			"componentType":5123,
			"count":168,
			"type":"SCALAR"
		}
	],
	"bufferViews":[
		{
			"buffer":0,
			"byteLength":4536,
			"byteOffset":0,
			"target":34962
		},
		{
			"buffer":0,
			"byteLength":4536,
			"byteOffset":4536,
			"target":34962
		},
		{
			"buffer":0,
			"byteLength":3024,
			"byteOffset":9072,
			"target":34962
		},
		{
			"buffer":0,
			"byteLength":2148,
			"byteOffset":12096,
			"target":34963
		},
		{
			"buffer":0,
			"byteLength":288,
			"byteOffset":14244,
			"target":34962
		},
		{
			"buffer":0,
			"byteLength":288,
			"byteOffset":14532,
			"target":34962
		},
		{
			"buffer":0,
			"byteLength":192,
			"byteOffset":14820,
			"target":34962
		},
		{
			"buffer":0,
			"byteLength":72,
			"byteOffset":15012,
			"target":34963
		},
		{
			"buffer":0,
			"byteLength":288,
			"byteOffset":15084,
			"target":34962
		},
		{
			"buffer":0,
			"byteLength":288,
			"byteOffset":15372,
			"target":34962
		},
		{
			"buffer":0,
			"byteLength":192,
			"byteOffset":15660,
			"target":34962
		},
		{
			"buffer":0,
			"byteLength":288,
			"byteOffset":15852,
			"target":34962
		},
		{
			"buffer":0,
			"byteLength":288,
			"byteOffset":16140,
			"target":34962
		},
		{
			"buffer":0,
			"byteLength":192,
			"byteOffset":16428,
			"target":34962
		},
		{
			"buffer":0,
			"byteLength":288,
			"byteOffset":16620,
			"target":34962
		},
		{
			"buffer":0,
			"byteLength":288,
			"byteOffset":16908,
			"target":34962
		},
		{
			"buffer":0,
			"byteLength":192,
			"byteOffset":17196,
			"target":34962
		},
		{
			"buffer":0,
			"byteLength":288,
			"byteOffset":17388,
			"target":34962
		},
		{
			"buffer":0,
			"byteLength":288,
			"byteOffset":17676,
			"target":34962
		},
		{
			"buffer":0,
			"byteLength":192,
			"byteOffset":17964,
			"target":34962
		},
		{
			"buffer":0,
			"byteLength":288,
			"byteOffset":18156,
			"target":34962
		},
		{
			"buffer":0,
			"byteLength":288,
			"byteOffset":18444,
			"target":34962
		},
		{
			"buffer":0,
			"byteLength":192,
			"byteOffset":18732,
			"target":34962
		},
		{
			"buffer":0,
			"byteLength":288,
			"byteOffset":18924,
			"target":34962
		},
		{
			"buffer":0,
			"byteLength":288,
			"byteOffset":19212,
			"target":34962
		},
		{
			"buffer":0,
			"byteLength":192,
			"byteOffset":19500,
			"target":34962
		},
		{
			"buffer":0,
			"byteLength":288,
			"byteOffset":19692,
			"target":34962
		},
		{
			"buffer":0,
			"byteLength":288,
			"byteOffset":19980,
			"target":34962
		},
		{
			"buffer":0,
			"byteLength":192,
			"byteOffset":20268,
			"target":34962
		},
		{
			"buffer":0,
			"byteLength":576,
			"byteOffset":20460,
			"target":34962
		},
		{
			"buffer":0,
			"byteLength":576,
			"byteOffset":21036,
			"target":34962
		},
		{
			"buffer":0,
			"byteLength":384,
			"byteOffset":21612,
			"target":34962
		},
		{
			"buffer":0,
			"byteLength":192,
			"byteOffset":21996,
			"target":34963
		},
		{
			"buffer":0,
			"byteLength":576,
			"byteOffset":22188,
			"target":34962
		},
		{
			"buffer":0,
			"byteLength":576,
			"byteOffset":22764,
			"target":34962
		},
		{
			"buffer":0,
			"byteLength":384,
			"byteOffset":23340,
			"target":34962
		},
		{
			"buffer":0,
			"byteLength":192,
			"byteOffset":23724,
			"target":34963
		},
		{
			"buffer":0,
			"byteLength":576,
			"byteOffset":23916,
			"target":34962
		},
		{
			"buffer":0,
			"byteLength":576,
			"byteOffset":24492,
			"target":34962
		},
		{
			"buffer":0,
			"byteLength":384,
			"byteOffset":25068,
			"target":34962
		},
		{
			"buffer":0,
			"byteLength":288,
			"byteOffset":25452,
			"target":34962
		},
		{
			"buffer":0,
			"byteLength":288,
			"byteOffset":25740,
			"target":34962
		},
		{
			"buffer":0,
			"byteLength":192,
			"byteOffset":26028,
			"target":34962
		},
		{
			"buffer":0,
			"byteLength":72,
			"byteOffset":26220,
			"target":34963
		},
		{
			"buffer":0,
			"byteLength":3060,
			"byteOffset":26292,
			"target":34962
		},
		{
			"buffer":0,
			"byteLength":3060,
			"byteOffset":29352,
			"target":34962
		},
		{
			"buffer":0,
			"byteLength":2040,
			"byteOffset":32412,
			"target":34962
		},
		{
			"buffer":0,
			"byteLength":1080,
			"byteOffset":34452,
			"target":34963
		},
		{
			"buffer":0,
			"byteLength":576,
			"byteOffset":35532,
			"target":34962
		},
		{
			"buffer":0,
			"byteLength":576,
			"byteOffset":36108,
			"target":34962
		},
		{
			"buffer":0,
			"byteLength":384,
			"byteOffset":36684,
			"target":34962
		},
		{
			"buffer":0,
			"byteLength":192,
			"byteOffset":37068,
			"target":34963
		},
		{
			"buffer":0,
			"byteLength":1008,
			"byteOffset":37260,
			"target":34962
		},
		{
			"buffer":0,
			"byteLength":1008,
			"byteOffset":38268,
			"target":34962
		},
		{
			"buffer":0,
			"byteLength":672,
			"byteOffset":39276,
			"target":34962
		},
		{
			"buffer":0,
			"byteLength":264,
			"byteOffset":39948,
			"target":34963
		},
		{
			"buffer":0,
			"byteLength":4536,
			"byteOffset":40212,
			"target":34962
		},
		{
			"buffer":0,
			"byteLength":4536,
			"byteOffset":44748,
			"target":34962
		},
		{
			"buffer":0,
			"byteLength":3024,
			"byteOffset":49284,
			"target":34962
		},
		{
			"buffer":0,
			"byteLength":114216,
			"byteOffset":52308,
			"target":34962
		},
		{
			"buffer":0,
			"byteLength":114216,
			"byteOffset":166524,
			"target":34962
		},
		{
			"buffer":0,
			"byteLength":76144,
			"byteOffset":280740,
			"target":34962
		},
		{
			"buffer":0,
			"byteLength":35658,
			"byteOffset":356884,
			"target":34963
		},
		{
			"buffer":0,
			"byteLength":960,
			"byteOffset":392544,
			"target":34962
		},
		{
			"buffer":0,
			"byteLength":960,
			"byteOffset":393504,
			"target":34962
		},
		{
			"buffer":0,
			"byteLength":640,
			"byteOffset":394464,
			"target":34962
		},
		{
			"buffer":0,
			"byteLength":336,
			"byteOffset":395104,
			"target":34963
		}
	],
	"samplers":[
		{
			"magFilter":9729,
			"minFilter":9987
		}
	],
	"buffers":[
		{
			"byteLength":395440,
			"uri":"cvrkec.bin"
		}
	]
}
