{
	"asset":{
		"generator":"Khronos glTF Blender I/O v4.3.47",
		"version":"2.0"
	},
	"scene":0,
	"scenes":[
		{
			"name":"Scene",
			"nodes":[
				0,
				1,
				2,
				3,
				4,
				5,
				6,
				7,
				8,
				9,
				10,
				11,
				12,
				13,
				14,
				15,
				16
			]
		}
	],
	"nodes":[
		{
			"mesh":0,
			"name":"Ctverec",
			"scale":[
				1,
				0.015000004321336746,
				1
			]
		},
		{
			"mesh":1,
			"name":"Ctverec45",
			"scale":[
				1,
				0.005000002216547728,
				1
			]
		},
		{
			"mesh":2,
			"name":"CtverecSmooth",
			"scale":[
				1,
				0.015000004321336746,
				1
			]
		},
		{
			"mesh":3,
			"name":"Kruh45",
			"scale":[
				1,
				0.009999999776482582,
				1
			]
		},
		{
			"mesh":4,
			"name":"Kruh",
			"scale":[
				1,
				0.014999999664723873,
				1
			]
		},
		{
			"mesh":5,
			"name":"Natural",
			"scale":[
				1,
				0.029999971389770508,
				1.600000023841858
			],
			"translation":[
				0,
				1.4340499639511108,
				0
			]
		},
		{
			"mesh":6,
			"name":"hexagon",
			"scale":[
				1.2000000476837158,
				1,
				1.2000000476837158
			]
		},
		{
			"mesh":7,
			"name":"hexagon45",
			"scale":[
				1.2000000476837158,
				1,
				1.2000000476837158
			]
		},
		{
			"mesh":8,
			"name":"hexagonSmooth",
			"scale":[
				1.2000000476837158,
				1,
				1.2000000476837158
			]
		},
		{
			"mesh":9,
			"name":"1Noha1/4",
			"scale":[
				0.05000000074505806,
				0.5,
				0.05000000074505806
			],
			"translation":[
				0.8999999761581421,
				-0.5,
				-0.8999999761581421
			]
		},
		{
			"mesh":10,
			"name":"1Noha4/4",
			"scale":[
				0.05000000074505806,
				0.5,
				0.05000000074505806
			],
			"translation":[
				0.8999999761581421,
				-0.5,
				0.8999999761581421
			]
		},
		{
			"mesh":11,
			"name":"1Noha3/4",
			"scale":[
				0.05000000074505806,
				0.5,
				0.05000000074505806
			],
			"translation":[
				-0.8999999761581421,
				-0.5,
				0.8999999761581421
			]
		},
		{
			"mesh":12,
			"name":"1Noha2/4",
			"scale":[
				0.05000000074505806,
				0.5,
				0.05000000074505806
			],
			"translation":[
				-0.8999999761581421,
				-0.5,
				-0.8999999761581421
			]
		},
		{
			"mesh":13,
			"name":"2Noha1/4",
			"scale":[
				0.05000000074505806,
				0.5,
				0.05000000074505806
			],
			"translation":[
				0.8999999761581421,
				-0.5,
				0
			]
		},
		{
			"mesh":14,
			"name":"2Noha2/4",
			"scale":[
				0.05000000074505806,
				0.5,
				0.05000000074505806
			],
			"translation":[
				0,
				-0.5,
				-0.8999999761581421
			]
		},
		{
			"mesh":15,
			"name":"2Noha3/4",
			"scale":[
				0.05000000074505806,
				0.5,
				0.05000000074505806
			],
			"translation":[
				-0.8999999761581421,
				-0.5,
				0
			]
		},
		{
			"mesh":16,
			"name":"2Noha4/4",
			"scale":[
				0.05000000074505806,
				0.5,
				0.05000000074505806
			],
			"translation":[
				0,
				-0.5,
				0.8999999761581421
			]
		}
	],
	"materials":[
		{
			"doubleSided":true,
			"name":"texture2",
			"pbrMetallicRoughness":{
				"baseColorTexture":{
					"index":0
				},
				"metallicFactor":0,
				"metallicRoughnessTexture":{
					"index":1
				}
			}
		},
		{
			"doubleSided":true,
			"name":"Material.003",
			"pbrMetallicRoughness":{
				"baseColorFactor":[
					0.800000011920929,
					0.800000011920929,
					0.800000011920929,
					1
				],
				"metallicFactor":0,
				"roughnessFactor":0.5
			}
		}
	],
	"meshes":[
		{
			"name":"Cube",
			"primitives":[
				{
					"attributes":{
						"POSITION":0,
						"NORMAL":1,
						"TEXCOORD_0":2
					},
					"indices":3,
					"material":0
				}
			]
		},
		{
			"name":"Cube.002",
			"primitives":[
				{
					"attributes":{
						"POSITION":4,
						"NORMAL":5,
						"TEXCOORD_0":6
					},
					"indices":7,
					"material":0
				}
			]
		},
		{
			"name":"Cube.003",
			"primitives":[
				{
					"attributes":{
						"POSITION":8,
						"NORMAL":9,
						"TEXCOORD_0":10
					},
					"indices":11,
					"material":1
				}
			]
		},
		{
			"name":"Cylinder.001",
			"primitives":[
				{
					"attributes":{
						"POSITION":12,
						"NORMAL":13,
						"TEXCOORD_0":14
					},
					"indices":15
				}
			]
		},
		{
			"name":"Cylinder.002",
			"primitives":[
				{
					"attributes":{
						"POSITION":16,
						"NORMAL":17,
						"TEXCOORD_0":18
					},
					"indices":19
				}
			]
		},
		{
			"name":"Cube.004",
			"primitives":[
				{
					"attributes":{
						"POSITION":20,
						"NORMAL":21,
						"TEXCOORD_0":22
					},
					"indices":23
				}
			]
		},
		{
			"name":"Circle",
			"primitives":[
				{
					"attributes":{
						"POSITION":24,
						"NORMAL":25,
						"TEXCOORD_0":26
					},
					"indices":27
				}
			]
		},
		{
			"name":"Circle.001",
			"primitives":[
				{
					"attributes":{
						"POSITION":28,
						"NORMAL":29,
						"TEXCOORD_0":30
					},
					"indices":31
				}
			]
		},
		{
			"name":"Circle.002",
			"primitives":[
				{
					"attributes":{
						"POSITION":32,
						"NORMAL":33,
						"TEXCOORD_0":34
					},
					"indices":35
				}
			]
		},
		{
			"name":"Cube.005",
			"primitives":[
				{
					"attributes":{
						"POSITION":36,
						"NORMAL":37,
						"TEXCOORD_0":38
					},
					"indices":39
				}
			]
		},
		{
			"name":"Cube.006",
			"primitives":[
				{
					"attributes":{
						"POSITION":40,
						"NORMAL":41,
						"TEXCOORD_0":42
					},
					"indices":39
				}
			]
		},
		{
			"name":"Cube.007",
			"primitives":[
				{
					"attributes":{
						"POSITION":43,
						"NORMAL":44,
						"TEXCOORD_0":45
					},
					"indices":39
				}
			]
		},
		{
			"name":"Cube.008",
			"primitives":[
				{
					"attributes":{
						"POSITION":46,
						"NORMAL":47,
						"TEXCOORD_0":48
					},
					"indices":39
				}
			]
		},
		{
			"name":"Cube.009",
			"primitives":[
				{
					"attributes":{
						"POSITION":49,
						"NORMAL":50,
						"TEXCOORD_0":51
					},
					"indices":39
				}
			]
		},
		{
			"name":"Cube.010",
			"primitives":[
				{
					"attributes":{
						"POSITION":52,
						"NORMAL":53,
						"TEXCOORD_0":54
					},
					"indices":39
				}
			]
		},
		{
			"name":"Cube.011",
			"primitives":[
				{
					"attributes":{
						"POSITION":55,
						"NORMAL":56,
						"TEXCOORD_0":57
					},
					"indices":39
				}
			]
		},
		{
			"name":"Cube.012",
			"primitives":[
				{
					"attributes":{
						"POSITION":58,
						"NORMAL":59,
						"TEXCOORD_0":60
					},
					"indices":39
				}
			]
		}
	],
	"textures":[
		{
			"sampler":0,
			"source":0
		},
		{
			"sampler":0,
			"source":1
		}
	],
	"images":[
		{
			"mimeType":"image/png",
			"name":"Wood10_4K_BaseColor",
			"uri":"Wood10_4K_BaseColor.png"
		},
		{
			"mimeType":"image/png",
			"name":"Wood10_4K_Roughness",
			"uri":"Wood10_4K_Roughness.png"
		}
	],
	"accessors":[
		{
			"bufferView":0,
			"componentType":5126,
			"count":24,
			"max":[
				1,
				1,
				1
			],
			"min":[
				-1,
				-1,
				-1
			],
			"type":"VEC3"
		},
		{
			"bufferView":1,
			"componentType":5126,
			"count":24,
			"type":"VEC3"
		},
		{
			"bufferView":2,
			"componentType":5126,
			"count":24,
			"type":"VEC2"
		},
		{
			"bufferView":3,
			"componentType":5123,
			"count":36,
			"type":"SCALAR"
		},
		{
			"bufferView":4,
			"componentType":5126,
			"count":56,
			"max":[
				1,
				2.9999990463256836,
				1
			],
			"min":[
				-1,
				-2.9999990463256836,
				-1
			],
			"type":"VEC3"
		},
		{
			"bufferView":5,
			"componentType":5126,
			"count":56,
			"type":"VEC3"
		},
		{
			"bufferView":6,
			"componentType":5126,
			"count":56,
			"type":"VEC2"
		},
		{
			"bufferView":7,
			"componentType":5123,
			"count":84,
			"type":"SCALAR"
		},
		{
			"bufferView":8,
			"componentType":5126,
			"count":104544,
			"max":[
				1,
				1,
				1
			],
			"min":[
				-1,
				-1,
				-1
			],
			"type":"VEC3"
		},
		{
			"bufferView":9,
			"componentType":5126,
			"count":104544,
			"type":"VEC3"
		},
		{
			"bufferView":10,
			"componentType":5126,
			"count":104544,
			"type":"VEC2"
		},
		{
			"bufferView":11,
			"componentType":5125,
			"count":156804,
			"type":"SCALAR"
		},
		{
			"bufferView":12,
			"componentType":5126,
			"count":490,
			"max":[
				0.9936952590942383,
				3,
				0.9936952590942383
			],
			"min":[
				-0.9936952590942383,
				-3,
				-0.9936952590942383
			],
			"type":"VEC3"
		},
		{
			"bufferView":13,
			"componentType":5126,
			"count":490,
			"type":"VEC3"
		},
		{
			"bufferView":14,
			"componentType":5126,
			"count":490,
			"type":"VEC2"
		},
		{
			"bufferView":15,
			"componentType":5123,
			"count":1842,
			"type":"SCALAR"
		},
		{
			"bufferView":16,
			"componentType":5126,
			"count":362,
			"max":[
				0.9936952590942383,
				1.0000001192092896,
				0.9936952590942383
			],
			"min":[
				-0.9936952590942383,
				-1.0000001192092896,
				-0.9936952590942383
			],
			"type":"VEC3"
		},
		{
			"bufferView":17,
			"componentType":5126,
			"count":362,
			"type":"VEC3"
		},
		{
			"bufferView":18,
			"componentType":5126,
			"count":362,
			"type":"VEC2"
		},
		{
			"bufferView":19,
			"componentType":5123,
			"count":1074,
			"type":"SCALAR"
		},
		{
			"bufferView":20,
			"componentType":5126,
			"count":9320,
			"max":[
				1.0522656440734863,
				1,
				1.0334933996200562
			],
			"min":[
				-1.039326786994934,
				-1,
				-1.0390123128890991
			],
			"type":"VEC3"
		},
		{
			"bufferView":21,
			"componentType":5126,
			"count":9320,
			"type":"VEC3"
		},
		{
			"bufferView":22,
			"componentType":5126,
			"count":9320,
			"type":"VEC2"
		},
		{
			"bufferView":23,
			"componentType":5123,
			"count":17829,
			"type":"SCALAR"
		},
		{
			"bufferView":24,
			"componentType":5126,
			"count":48,
			"max":[
				0.8660253882408142,
				0.03099999949336052,
				1
			],
			"min":[
				-0.8660253882408142,
				-0.0010000000474974513,
				-1
			],
			"type":"VEC3"
		},
		{
			"bufferView":25,
			"componentType":5126,
			"count":48,
			"type":"VEC3"
		},
		{
			"bufferView":26,
			"componentType":5126,
			"count":48,
			"type":"VEC2"
		},
		{
			"bufferView":27,
			"componentType":5123,
			"count":96,
			"type":"SCALAR"
		},
		{
			"bufferView":28,
			"componentType":5126,
			"count":84,
			"max":[
				0.8660253882408142,
				0.04999999701976776,
				1
			],
			"min":[
				-0.8660253882408142,
				-0.019999999552965164,
				-1
			],
			"type":"VEC3"
		},
		{
			"bufferView":29,
			"componentType":5126,
			"count":84,
			"type":"VEC3"
		},
		{
			"bufferView":30,
			"componentType":5126,
			"count":84,
			"type":"VEC2"
		},
		{
			"bufferView":31,
			"componentType":5123,
			"count":132,
			"type":"SCALAR"
		},
		{
			"bufferView":32,
			"componentType":5126,
			"count":48397,
			"max":[
				0.8660629391670227,
				0.03099999949336052,
				0.9928191900253296
			],
			"min":[
				-0.8660629391670227,
				-0.025596965104341507,
				-0.9928191900253296
			],
			"type":"VEC3"
		},
		{
			"bufferView":33,
			"componentType":5126,
			"count":48397,
			"type":"VEC3"
		},
		{
			"bufferView":34,
			"componentType":5126,
			"count":48397,
			"type":"VEC2"
		},
		{
			"bufferView":35,
			"componentType":5123,
			"count":75696,
			"type":"SCALAR"
		},
		{
			"bufferView":36,
			"componentType":5126,
			"count":24,
			"max":[
				1,
				1,
				1
			],
			"min":[
				-1,
				-1,
				-1
			],
			"type":"VEC3"
		},
		{
			"bufferView":37,
			"componentType":5126,
			"count":24,
			"type":"VEC3"
		},
		{
			"bufferView":38,
			"componentType":5126,
			"count":24,
			"type":"VEC2"
		},
		{
			"bufferView":39,
			"componentType":5123,
			"count":36,
			"type":"SCALAR"
		},
		{
			"bufferView":40,
			"componentType":5126,
			"count":24,
			"max":[
				1,
				1,
				1
			],
			"min":[
				-1,
				-1,
				-1
			],
			"type":"VEC3"
		},
		{
			"bufferView":41,
			"componentType":5126,
			"count":24,
			"type":"VEC3"
		},
		{
			"bufferView":42,
			"componentType":5126,
			"count":24,
			"type":"VEC2"
		},
		{
			"bufferView":43,
			"componentType":5126,
			"count":24,
			"max":[
				1,
				1,
				1
			],
			"min":[
				-1,
				-1,
				-1
			],
			"type":"VEC3"
		},
		{
			"bufferView":44,
			"componentType":5126,
			"count":24,
			"type":"VEC3"
		},
		{
			"bufferView":45,
			"componentType":5126,
			"count":24,
			"type":"VEC2"
		},
		{
			"bufferView":46,
			"componentType":5126,
			"count":24,
			"max":[
				1,
				1,
				1
			],
			"min":[
				-1,
				-1,
				-1
			],
			"type":"VEC3"
		},
		{
			"bufferView":47,
			"componentType":5126,
			"count":24,
			"type":"VEC3"
		},
		{
			"bufferView":48,
			"componentType":5126,
			"count":24,
			"type":"VEC2"
		},
		{
			"bufferView":49,
			"componentType":5126,
			"count":24,
			"max":[
				1,
				1,
				1
			],
			"min":[
				-1,
				-1,
				-1
			],
			"type":"VEC3"
		},
		{
			"bufferView":50,
			"componentType":5126,
			"count":24,
			"type":"VEC3"
		},
		{
			"bufferView":51,
			"componentType":5126,
			"count":24,
			"type":"VEC2"
		},
		{
			"bufferView":52,
			"componentType":5126,
			"count":24,
			"max":[
				1,
				1,
				1
			],
			"min":[
				-1,
				-1,
				-1
			],
			"type":"VEC3"
		},
		{
			"bufferView":53,
			"componentType":5126,
			"count":24,
			"type":"VEC3"
		},
		{
			"bufferView":54,
			"componentType":5126,
			"count":24,
			"type":"VEC2"
		},
		{
			"bufferView":55,
			"componentType":5126,
			"count":24,
			"max":[
				1,
				1,
				1
			],
			"min":[
				-1,
				-1,
				-1
			],
			"type":"VEC3"
		},
		{
			"bufferView":56,
			"componentType":5126,
			"count":24,
			"type":"VEC3"
		},
		{
			"bufferView":57,
			"componentType":5126,
			"count":24,
			"type":"VEC2"
		},
		{
			"bufferView":58,
			"componentType":5126,
			"count":24,
			"max":[
				1,
				1,
				1
			],
			"min":[
				-1,
				-1,
				-1
			],
			"type":"VEC3"
		},
		{
			"bufferView":59,
			"componentType":5126,
			"count":24,
			"type":"VEC3"
		},
		{
			"bufferView":60,
			"componentType":5126,
			"count":24,
			"type":"VEC2"
		}
	],
	"bufferViews":[
		{
			"buffer":0,
			"byteLength":288,
			"byteOffset":0,
			"target":34962
		},
		{
			"buffer":0,
			"byteLength":288,
			"byteOffset":288,
			"target":34962
		},
		{
			"buffer":0,
			"byteLength":192,
			"byteOffset":576,
			"target":34962
		},
		{
			"buffer":0,
			"byteLength":72,
			"byteOffset":768,
			"target":34963
		},
		{
			"buffer":0,
			"byteLength":672,
			"byteOffset":840,
			"target":34962
		},
		{
			"buffer":0,
			"byteLength":672,
			"byteOffset":1512,
			"target":34962
		},
		{
			"buffer":0,
			"byteLength":448,
			"byteOffset":2184,
			"target":34962
		},
		{
			"buffer":0,
			"byteLength":168,
			"byteOffset":2632,
			"target":34963
		},
		{
			"buffer":0,
			"byteLength":1254528,
			"byteOffset":2800,
			"target":34962
		},
		{
			"buffer":0,
			"byteLength":1254528,
			"byteOffset":1257328,
			"target":34962
		},
		{
			"buffer":0,
			"byteLength":836352,
			"byteOffset":2511856,
			"target":34962
		},
		{
			"buffer":0,
			"byteLength":627216,
			"byteOffset":3348208,
			"target":34963
		},
		{
			"buffer":0,
			"byteLength":5880,
			"byteOffset":3975424,
			"target":34962
		},
		{
			"buffer":0,
			"byteLength":5880,
			"byteOffset":3981304,
			"target":34962
		},
		{
			"buffer":0,
			"byteLength":3920,
			"byteOffset":3987184,
			"target":34962
		},
		{
			"buffer":0,
			"byteLength":3684,
			"byteOffset":3991104,
			"target":34963
		},
		{
			"buffer":0,
			"byteLength":4344,
			"byteOffset":3994788,
			"target":34962
		},
		{
			"buffer":0,
			"byteLength":4344,
			"byteOffset":3999132,
			"target":34962
		},
		{
			"buffer":0,
			"byteLength":2896,
			"byteOffset":4003476,
			"target":34962
		},
		{
			"buffer":0,
			"byteLength":2148,
			"byteOffset":4006372,
			"target":34963
		},
		{
			"buffer":0,
			"byteLength":111840,
			"byteOffset":4008520,
			"target":34962
		},
		{
			"buffer":0,
			"byteLength":111840,
			"byteOffset":4120360,
			"target":34962
		},
		{
			"buffer":0,
			"byteLength":74560,
			"byteOffset":4232200,
			"target":34962
		},
		{
			"buffer":0,
			"byteLength":35658,
			"byteOffset":4306760,
			"target":34963
		},
		{
			"buffer":0,
			"byteLength":576,
			"byteOffset":4342420,
			"target":34962
		},
		{
			"buffer":0,
			"byteLength":576,
			"byteOffset":4342996,
			"target":34962
		},
		{
			"buffer":0,
			"byteLength":384,
			"byteOffset":4343572,
			"target":34962
		},
		{
			"buffer":0,
			"byteLength":192,
			"byteOffset":4343956,
			"target":34963
		},
		{
			"buffer":0,
			"byteLength":1008,
			"byteOffset":4344148,
			"target":34962
		},
		{
			"buffer":0,
			"byteLength":1008,
			"byteOffset":4345156,
			"target":34962
		},
		{
			"buffer":0,
			"byteLength":672,
			"byteOffset":4346164,
			"target":34962
		},
		{
			"buffer":0,
			"byteLength":264,
			"byteOffset":4346836,
			"target":34963
		},
		{
			"buffer":0,
			"byteLength":580764,
			"byteOffset":4347100,
			"target":34962
		},
		{
			"buffer":0,
			"byteLength":580764,
			"byteOffset":4927864,
			"target":34962
		},
		{
			"buffer":0,
			"byteLength":387176,
			"byteOffset":5508628,
			"target":34962
		},
		{
			"buffer":0,
			"byteLength":151392,
			"byteOffset":5895804,
			"target":34963
		},
		{
			"buffer":0,
			"byteLength":288,
			"byteOffset":6047196,
			"target":34962
		},
		{
			"buffer":0,
			"byteLength":288,
			"byteOffset":6047484,
			"target":34962
		},
		{
			"buffer":0,
			"byteLength":192,
			"byteOffset":6047772,
			"target":34962
		},
		{
			"buffer":0,
			"byteLength":72,
			"byteOffset":6047964,
			"target":34963
		},
		{
			"buffer":0,
			"byteLength":288,
			"byteOffset":6048036,
			"target":34962
		},
		{
			"buffer":0,
			"byteLength":288,
			"byteOffset":6048324,
			"target":34962
		},
		{
			"buffer":0,
			"byteLength":192,
			"byteOffset":6048612,
			"target":34962
		},
		{
			"buffer":0,
			"byteLength":288,
			"byteOffset":6048804,
			"target":34962
		},
		{
			"buffer":0,
			"byteLength":288,
			"byteOffset":6049092,
			"target":34962
		},
		{
			"buffer":0,
			"byteLength":192,
			"byteOffset":6049380,
			"target":34962
		},
		{
			"buffer":0,
			"byteLength":288,
			"byteOffset":6049572,
			"target":34962
		},
		{
			"buffer":0,
			"byteLength":288,
			"byteOffset":6049860,
			"target":34962
		},
		{
			"buffer":0,
			"byteLength":192,
			"byteOffset":6050148,
			"target":34962
		},
		{
			"buffer":0,
			"byteLength":288,
			"byteOffset":6050340,
			"target":34962
		},
		{
			"buffer":0,
			"byteLength":288,
			"byteOffset":6050628,
			"target":34962
		},
		{
			"buffer":0,
			"byteLength":192,
			"byteOffset":6050916,
			"target":34962
		},
		{
			"buffer":0,
			"byteLength":288,
			"byteOffset":6051108,
			"target":34962
		},
		{
			"buffer":0,
			"byteLength":288,
			"byteOffset":6051396,
			"target":34962
		},
		{
			"buffer":0,
			"byteLength":192,
			"byteOffset":6051684,
			"target":34962
		},
		{
			"buffer":0,
			"byteLength":288,
			"byteOffset":6051876,
			"target":34962
		},
		{
			"buffer":0,
			"byteLength":288,
			"byteOffset":6052164,
			"target":34962
		},
		{
			"buffer":0,
			"byteLength":192,
			"byteOffset":6052452,
			"target":34962
		},
		{
			"buffer":0,
			"byteLength":288,
			"byteOffset":6052644,
			"target":34962
		},
		{
			"buffer":0,
			"byteLength":288,
			"byteOffset":6052932,
			"target":34962
		},
		{
			"buffer":0,
			"byteLength":192,
			"byteOffset":6053220,
			"target":34962
		}
	],
	"samplers":[
		{
			"magFilter":9729,
			"minFilter":9987
		}
	],
	"buffers":[
		{
			"byteLength":6053412,
			"uri":"cvrkec.bin"
		}
	]
}
