{
	"asset":{
		"generator":"Khronos glTF Blender I/O v4.4.55",
		"version":"2.0"
	},
	"scene":0,
	"scenes":[
		{
			"name":"Scene",
			"nodes":[
				0,
				1,
				2,
				3,
				4,
				5,
				6,
				7,
				8,
				9,
				10,
				11,
				12,
				13,
				14,
				15,
				16
			]
		}
	],
	"nodes":[
		{
			"mesh":0,
			"name":"Ctverec",
			"scale":[
				1,
				0.015000004321336746,
				1
			]
		},
		{
			"mesh":1,
			"name":"Kruh",
			"scale":[
				1,
				0.014999999664723873,
				1
			]
		},
		{
			"mesh":2,
			"name":"Natural",
			"scale":[
				1,
				0.029999971389770508,
				1.600000023841858
			],
			"translation":[
				0,
				1.4340499639511108,
				0
			]
		},
		{
			"mesh":3,
			"name":"hexagon",
			"scale":[
				1.2000000476837158,
				1,
				1.2000000476837158
			]
		},
		{
			"mesh":4,
			"name":"hexagon45",
			"scale":[
				1.2000000476837158,
				1,
				1.2000000476837158
			]
		},
		{
			"mesh":5,
			"name":"1Noha1/4",
			"scale":[
				0.05000000074505806,
				0.5,
				0.05000000074505806
			],
			"translation":[
				0.8999999761581421,
				-0.5,
				-0.8999999761581421
			]
		},
		{
			"mesh":6,
			"name":"1Noha4/4",
			"scale":[
				0.05000000074505806,
				0.5,
				0.05000000074505806
			],
			"translation":[
				0.8999999761581421,
				-0.5,
				0.8999999761581421
			]
		},
		{
			"mesh":7,
			"name":"1Noha3/4",
			"scale":[
				0.05000000074505806,
				0.5,
				0.05000000074505806
			],
			"translation":[
				-0.8999999761581421,
				-0.5,
				0.8999999761581421
			]
		},
		{
			"mesh":8,
			"name":"1Noha2/4",
			"scale":[
				0.05000000074505806,
				0.5,
				0.05000000074505806
			],
			"translation":[
				-0.8999999761581421,
				-0.5,
				-0.8999999761581421
			]
		},
		{
			"mesh":9,
			"name":"2Noha1/4",
			"scale":[
				0.05000000074505806,
				0.5,
				0.05000000074505806
			],
			"translation":[
				0.8999999761581421,
				-0.5,
				0
			]
		},
		{
			"mesh":10,
			"name":"2Noha2/4",
			"scale":[
				0.05000000074505806,
				0.5,
				0.05000000074505806
			],
			"translation":[
				0,
				-0.5,
				-0.8999999761581421
			]
		},
		{
			"mesh":11,
			"name":"2Noha3/4",
			"scale":[
				0.05000000074505806,
				0.5,
				0.05000000074505806
			],
			"translation":[
				-0.8999999761581421,
				-0.5,
				0
			]
		},
		{
			"mesh":12,
			"name":"2Noha4/4",
			"scale":[
				0.05000000074505806,
				0.5,
				0.05000000074505806
			],
			"translation":[
				0,
				-0.5,
				0.8999999761581421
			]
		},
		{
			"mesh":13,
			"name":"4Noha1",
			"rotation":[
				0,
				0.7071068286895752,
				0,
				0.7071068286895752
			],
			"scale":[
				-0.10057610273361206,
				-1.0003492832183838,
				-0.9803493022918701
			],
			"translation":[
				-0.7647961974143982,
				0,
				-0.7647961378097534
			]
		},
		{
			"mesh":14,
			"name":"Cube",
			"rotation":[
				0,
				1,
				0,
				0
			],
			"scale":[
				-0.06273291260004044,
				-0.013675720430910587,
				-0.10100000351667404
			],
			"translation":[
				3.511363983154297,
				1.2890312671661377,
				0
			]
		},
		{
			"mesh":15,
			"name":"5oha1.001",
			"rotation":[
				0.7071068286895752,
				0,
				-0.7071068286895752,
				0
			],
			"scale":[
				-0.10057610273361206,
				-1.0003492832183838,
				-0.9803493022918701
			],
			"translation":[
				-0.7647961974143982,
				0,
				-0.7647961378097534
			]
		},
		{
			"mesh":16,
			"name":"3Noha1",
			"scale":[
				1,
				1,
				0.17267262935638428
			]
		}
	],
	"materials":[
		{
			"doubleSided":true,
			"name":"texture2",
			"pbrMetallicRoughness":{
				"metallicFactor":0,
				"metallicRoughnessTexture":{
					"index":0
				}
			}
		}
	],
	"meshes":[
		{
			"name":"Cube",
			"primitives":[
				{
					"attributes":{
						"POSITION":0,
						"NORMAL":1,
						"TEXCOORD_0":2
					},
					"indices":3,
					"material":0
				}
			]
		},
		{
			"name":"Cylinder.002",
			"primitives":[
				{
					"attributes":{
						"POSITION":4,
						"NORMAL":5,
						"TEXCOORD_0":6
					},
					"indices":7
				}
			]
		},
		{
			"name":"Cube.004",
			"primitives":[
				{
					"attributes":{
						"POSITION":8,
						"NORMAL":9,
						"TEXCOORD_0":10
					},
					"indices":11
				}
			]
		},
		{
			"name":"Circle",
			"primitives":[
				{
					"attributes":{
						"POSITION":12,
						"NORMAL":13,
						"TEXCOORD_0":14
					},
					"indices":15
				}
			]
		},
		{
			"name":"Circle.001",
			"primitives":[
				{
					"attributes":{
						"POSITION":16,
						"NORMAL":17,
						"TEXCOORD_0":18
					},
					"indices":19
				}
			]
		},
		{
			"name":"Cube.005",
			"primitives":[
				{
					"attributes":{
						"POSITION":20,
						"NORMAL":21,
						"TEXCOORD_0":22
					},
					"indices":23
				}
			]
		},
		{
			"name":"Cube.006",
			"primitives":[
				{
					"attributes":{
						"POSITION":24,
						"NORMAL":25,
						"TEXCOORD_0":26
					},
					"indices":23
				}
			]
		},
		{
			"name":"Cube.007",
			"primitives":[
				{
					"attributes":{
						"POSITION":27,
						"NORMAL":28,
						"TEXCOORD_0":29
					},
					"indices":23
				}
			]
		},
		{
			"name":"Cube.008",
			"primitives":[
				{
					"attributes":{
						"POSITION":30,
						"NORMAL":31,
						"TEXCOORD_0":32
					},
					"indices":23
				}
			]
		},
		{
			"name":"Cube.009",
			"primitives":[
				{
					"attributes":{
						"POSITION":33,
						"NORMAL":34,
						"TEXCOORD_0":35
					},
					"indices":23
				}
			]
		},
		{
			"name":"Cube.010",
			"primitives":[
				{
					"attributes":{
						"POSITION":36,
						"NORMAL":37,
						"TEXCOORD_0":38
					},
					"indices":23
				}
			]
		},
		{
			"name":"Cube.011",
			"primitives":[
				{
					"attributes":{
						"POSITION":39,
						"NORMAL":40,
						"TEXCOORD_0":41
					},
					"indices":23
				}
			]
		},
		{
			"name":"Cube.012",
			"primitives":[
				{
					"attributes":{
						"POSITION":42,
						"NORMAL":43,
						"TEXCOORD_0":44
					},
					"indices":23
				}
			]
		},
		{
			"name":"Cube.016",
			"primitives":[
				{
					"attributes":{
						"POSITION":45,
						"NORMAL":46,
						"TEXCOORD_0":47
					},
					"indices":48
				}
			]
		},
		{
			"name":"Cube.018",
			"primitives":[
				{
					"attributes":{
						"POSITION":49,
						"NORMAL":50,
						"TEXCOORD_0":51
					},
					"indices":52
				}
			]
		},
		{
			"name":"Cube.020",
			"primitives":[
				{
					"attributes":{
						"POSITION":53,
						"NORMAL":54,
						"TEXCOORD_0":55
					},
					"indices":48
				}
			]
		},
		{
			"name":"Cube.021",
			"primitives":[
				{
					"attributes":{
						"POSITION":56,
						"NORMAL":57,
						"TEXCOORD_0":58
					},
					"indices":59
				}
			]
		}
	],
	"textures":[
		{
			"sampler":0,
			"source":0
		}
	],
	"images":[
		{
			"mimeType":"image/png",
			"name":"Wood10_4K_Roughness",
			"uri":"Wood10_4K_Roughness.png"
		}
	],
	"accessors":[
		{
			"bufferView":0,
			"componentType":5126,
			"count":24,
			"max":[
				1,
				1,
				1
			],
			"min":[
				-1,
				-1,
				-1
			],
			"type":"VEC3"
		},
		{
			"bufferView":1,
			"componentType":5126,
			"count":24,
			"type":"VEC3"
		},
		{
			"bufferView":2,
			"componentType":5126,
			"count":24,
			"type":"VEC2"
		},
		{
			"bufferView":3,
			"componentType":5123,
			"count":36,
			"type":"SCALAR"
		},
		{
			"bufferView":4,
			"componentType":5126,
			"count":362,
			"max":[
				0.9936952590942383,
				1.0000001192092896,
				0.9936952590942383
			],
			"min":[
				-0.9936952590942383,
				-1.0000001192092896,
				-0.9936952590942383
			],
			"type":"VEC3"
		},
		{
			"bufferView":5,
			"componentType":5126,
			"count":362,
			"type":"VEC3"
		},
		{
			"bufferView":6,
			"componentType":5126,
			"count":362,
			"type":"VEC2"
		},
		{
			"bufferView":7,
			"componentType":5123,
			"count":1074,
			"type":"SCALAR"
		},
		{
			"bufferView":8,
			"componentType":5126,
			"count":9320,
			"max":[
				1.0522656440734863,
				1,
				1.0334933996200562
			],
			"min":[
				-1.039326786994934,
				-1,
				-1.0390123128890991
			],
			"type":"VEC3"
		},
		{
			"bufferView":9,
			"componentType":5126,
			"count":9320,
			"type":"VEC3"
		},
		{
			"bufferView":10,
			"componentType":5126,
			"count":9320,
			"type":"VEC2"
		},
		{
			"bufferView":11,
			"componentType":5123,
			"count":17829,
			"type":"SCALAR"
		},
		{
			"bufferView":12,
			"componentType":5126,
			"count":48,
			"max":[
				0.8660253882408142,
				0.03099999949336052,
				1
			],
			"min":[
				-0.8660253882408142,
				-0.0010000000474974513,
				-1
			],
			"type":"VEC3"
		},
		{
			"bufferView":13,
			"componentType":5126,
			"count":48,
			"type":"VEC3"
		},
		{
			"bufferView":14,
			"componentType":5126,
			"count":48,
			"type":"VEC2"
		},
		{
			"bufferView":15,
			"componentType":5123,
			"count":96,
			"type":"SCALAR"
		},
		{
			"bufferView":16,
			"componentType":5126,
			"count":84,
			"max":[
				0.8660253882408142,
				0.04999999701976776,
				1
			],
			"min":[
				-0.8660253882408142,
				-0.019999999552965164,
				-1
			],
			"type":"VEC3"
		},
		{
			"bufferView":17,
			"componentType":5126,
			"count":84,
			"type":"VEC3"
		},
		{
			"bufferView":18,
			"componentType":5126,
			"count":84,
			"type":"VEC2"
		},
		{
			"bufferView":19,
			"componentType":5123,
			"count":132,
			"type":"SCALAR"
		},
		{
			"bufferView":20,
			"componentType":5126,
			"count":24,
			"max":[
				1,
				1,
				1
			],
			"min":[
				-1,
				-1,
				-1
			],
			"type":"VEC3"
		},
		{
			"bufferView":21,
			"componentType":5126,
			"count":24,
			"type":"VEC3"
		},
		{
			"bufferView":22,
			"componentType":5126,
			"count":24,
			"type":"VEC2"
		},
		{
			"bufferView":23,
			"componentType":5123,
			"count":36,
			"type":"SCALAR"
		},
		{
			"bufferView":24,
			"componentType":5126,
			"count":24,
			"max":[
				1,
				1,
				1
			],
			"min":[
				-1,
				-1,
				-1
			],
			"type":"VEC3"
		},
		{
			"bufferView":25,
			"componentType":5126,
			"count":24,
			"type":"VEC3"
		},
		{
			"bufferView":26,
			"componentType":5126,
			"count":24,
			"type":"VEC2"
		},
		{
			"bufferView":27,
			"componentType":5126,
			"count":24,
			"max":[
				1,
				1,
				1
			],
			"min":[
				-1,
				-1,
				-1
			],
			"type":"VEC3"
		},
		{
			"bufferView":28,
			"componentType":5126,
			"count":24,
			"type":"VEC3"
		},
		{
			"bufferView":29,
			"componentType":5126,
			"count":24,
			"type":"VEC2"
		},
		{
			"bufferView":30,
			"componentType":5126,
			"count":24,
			"max":[
				1,
				1,
				1
			],
			"min":[
				-1,
				-1,
				-1
			],
			"type":"VEC3"
		},
		{
			"bufferView":31,
			"componentType":5126,
			"count":24,
			"type":"VEC3"
		},
		{
			"bufferView":32,
			"componentType":5126,
			"count":24,
			"type":"VEC2"
		},
		{
			"bufferView":33,
			"componentType":5126,
			"count":24,
			"max":[
				1,
				1,
				1
			],
			"min":[
				-1,
				-1,
				-1
			],
			"type":"VEC3"
		},
		{
			"bufferView":34,
			"componentType":5126,
			"count":24,
			"type":"VEC3"
		},
		{
			"bufferView":35,
			"componentType":5126,
			"count":24,
			"type":"VEC2"
		},
		{
			"bufferView":36,
			"componentType":5126,
			"count":24,
			"max":[
				1,
				1,
				1
			],
			"min":[
				-1,
				-1,
				-1
			],
			"type":"VEC3"
		},
		{
			"bufferView":37,
			"componentType":5126,
			"count":24,
			"type":"VEC3"
		},
		{
			"bufferView":38,
			"componentType":5126,
			"count":24,
			"type":"VEC2"
		},
		{
			"bufferView":39,
			"componentType":5126,
			"count":24,
			"max":[
				1,
				1,
				1
			],
			"min":[
				-1,
				-1,
				-1
			],
			"type":"VEC3"
		},
		{
			"bufferView":40,
			"componentType":5126,
			"count":24,
			"type":"VEC3"
		},
		{
			"bufferView":41,
			"componentType":5126,
			"count":24,
			"type":"VEC2"
		},
		{
			"bufferView":42,
			"componentType":5126,
			"count":24,
			"max":[
				1,
				1,
				1
			],
			"min":[
				-1,
				-1,
				-1
			],
			"type":"VEC3"
		},
		{
			"bufferView":43,
			"componentType":5126,
			"count":24,
			"type":"VEC3"
		},
		{
			"bufferView":44,
			"componentType":5126,
			"count":24,
			"type":"VEC2"
		},
		{
			"bufferView":45,
			"componentType":5126,
			"count":48,
			"max":[
				1,
				1,
				1
			],
			"min":[
				-1,
				-1,
				-1
			],
			"type":"VEC3"
		},
		{
			"bufferView":46,
			"componentType":5126,
			"count":48,
			"type":"VEC3"
		},
		{
			"bufferView":47,
			"componentType":5126,
			"count":48,
			"type":"VEC2"
		},
		{
			"bufferView":48,
			"componentType":5123,
			"count":96,
			"type":"SCALAR"
		},
		{
			"bufferView":49,
			"componentType":5126,
			"count":255,
			"max":[
				8.448515892028809,
				1,
				4.267326831817627
			],
			"min":[
				-8.448515892028809,
				-44.1191291809082,
				-4.267326831817627
			],
			"type":"VEC3"
		},
		{
			"bufferView":50,
			"componentType":5126,
			"count":255,
			"type":"VEC3"
		},
		{
			"bufferView":51,
			"componentType":5126,
			"count":255,
			"type":"VEC2"
		},
		{
			"bufferView":52,
			"componentType":5123,
			"count":540,
			"type":"SCALAR"
		},
		{
			"bufferView":53,
			"componentType":5126,
			"count":48,
			"max":[
				1,
				1,
				1
			],
			"min":[
				-1,
				-1,
				-1
			],
			"type":"VEC3"
		},
		{
			"bufferView":54,
			"componentType":5126,
			"count":48,
			"type":"VEC3"
		},
		{
			"bufferView":55,
			"componentType":5126,
			"count":48,
			"type":"VEC2"
		},
		{
			"bufferView":56,
			"componentType":5126,
			"count":48,
			"max":[
				1,
				1,
				1
			],
			"min":[
				-1,
				-1,
				-1
			],
			"type":"VEC3"
		},
		{
			"bufferView":57,
			"componentType":5126,
			"count":48,
			"type":"VEC3"
		},
		{
			"bufferView":58,
			"componentType":5126,
			"count":48,
			"type":"VEC2"
		},
		{
			"bufferView":59,
			"componentType":5123,
			"count":96,
			"type":"SCALAR"
		}
	],
	"bufferViews":[
		{
			"buffer":0,
			"byteLength":288,
			"byteOffset":0,
			"target":34962
		},
		{
			"buffer":0,
			"byteLength":288,
			"byteOffset":288,
			"target":34962
		},
		{
			"buffer":0,
			"byteLength":192,
			"byteOffset":576,
			"target":34962
		},
		{
			"buffer":0,
			"byteLength":72,
			"byteOffset":768,
			"target":34963
		},
		{
			"buffer":0,
			"byteLength":4344,
			"byteOffset":840,
			"target":34962
		},
		{
			"buffer":0,
			"byteLength":4344,
			"byteOffset":5184,
			"target":34962
		},
		{
			"buffer":0,
			"byteLength":2896,
			"byteOffset":9528,
			"target":34962
		},
		{
			"buffer":0,
			"byteLength":2148,
			"byteOffset":12424,
			"target":34963
		},
		{
			"buffer":0,
			"byteLength":111840,
			"byteOffset":14572,
			"target":34962
		},
		{
			"buffer":0,
			"byteLength":111840,
			"byteOffset":126412,
			"target":34962
		},
		{
			"buffer":0,
			"byteLength":74560,
			"byteOffset":238252,
			"target":34962
		},
		{
			"buffer":0,
			"byteLength":35658,
			"byteOffset":312812,
			"target":34963
		},
		{
			"buffer":0,
			"byteLength":576,
			"byteOffset":348472,
			"target":34962
		},
		{
			"buffer":0,
			"byteLength":576,
			"byteOffset":349048,
			"target":34962
		},
		{
			"buffer":0,
			"byteLength":384,
			"byteOffset":349624,
			"target":34962
		},
		{
			"buffer":0,
			"byteLength":192,
			"byteOffset":350008,
			"target":34963
		},
		{
			"buffer":0,
			"byteLength":1008,
			"byteOffset":350200,
			"target":34962
		},
		{
			"buffer":0,
			"byteLength":1008,
			"byteOffset":351208,
			"target":34962
		},
		{
			"buffer":0,
			"byteLength":672,
			"byteOffset":352216,
			"target":34962
		},
		{
			"buffer":0,
			"byteLength":264,
			"byteOffset":352888,
			"target":34963
		},
		{
			"buffer":0,
			"byteLength":288,
			"byteOffset":353152,
			"target":34962
		},
		{
			"buffer":0,
			"byteLength":288,
			"byteOffset":353440,
			"target":34962
		},
		{
			"buffer":0,
			"byteLength":192,
			"byteOffset":353728,
			"target":34962
		},
		{
			"buffer":0,
			"byteLength":72,
			"byteOffset":353920,
			"target":34963
		},
		{
			"buffer":0,
			"byteLength":288,
			"byteOffset":353992,
			"target":34962
		},
		{
			"buffer":0,
			"byteLength":288,
			"byteOffset":354280,
			"target":34962
		},
		{
			"buffer":0,
			"byteLength":192,
			"byteOffset":354568,
			"target":34962
		},
		{
			"buffer":0,
			"byteLength":288,
			"byteOffset":354760,
			"target":34962
		},
		{
			"buffer":0,
			"byteLength":288,
			"byteOffset":355048,
			"target":34962
		},
		{
			"buffer":0,
			"byteLength":192,
			"byteOffset":355336,
			"target":34962
		},
		{
			"buffer":0,
			"byteLength":288,
			"byteOffset":355528,
			"target":34962
		},
		{
			"buffer":0,
			"byteLength":288,
			"byteOffset":355816,
			"target":34962
		},
		{
			"buffer":0,
			"byteLength":192,
			"byteOffset":356104,
			"target":34962
		},
		{
			"buffer":0,
			"byteLength":288,
			"byteOffset":356296,
			"target":34962
		},
		{
			"buffer":0,
			"byteLength":288,
			"byteOffset":356584,
			"target":34962
		},
		{
			"buffer":0,
			"byteLength":192,
			"byteOffset":356872,
			"target":34962
		},
		{
			"buffer":0,
			"byteLength":288,
			"byteOffset":357064,
			"target":34962
		},
		{
			"buffer":0,
			"byteLength":288,
			"byteOffset":357352,
			"target":34962
		},
		{
			"buffer":0,
			"byteLength":192,
			"byteOffset":357640,
			"target":34962
		},
		{
			"buffer":0,
			"byteLength":288,
			"byteOffset":357832,
			"target":34962
		},
		{
			"buffer":0,
			"byteLength":288,
			"byteOffset":358120,
			"target":34962
		},
		{
			"buffer":0,
			"byteLength":192,
			"byteOffset":358408,
			"target":34962
		},
		{
			"buffer":0,
			"byteLength":288,
			"byteOffset":358600,
			"target":34962
		},
		{
			"buffer":0,
			"byteLength":288,
			"byteOffset":358888,
			"target":34962
		},
		{
			"buffer":0,
			"byteLength":192,
			"byteOffset":359176,
			"target":34962
		},
		{
			"buffer":0,
			"byteLength":576,
			"byteOffset":359368,
			"target":34962
		},
		{
			"buffer":0,
			"byteLength":576,
			"byteOffset":359944,
			"target":34962
		},
		{
			"buffer":0,
			"byteLength":384,
			"byteOffset":360520,
			"target":34962
		},
		{
			"buffer":0,
			"byteLength":192,
			"byteOffset":360904,
			"target":34963
		},
		{
			"buffer":0,
			"byteLength":3060,
			"byteOffset":361096,
			"target":34962
		},
		{
			"buffer":0,
			"byteLength":3060,
			"byteOffset":364156,
			"target":34962
		},
		{
			"buffer":0,
			"byteLength":2040,
			"byteOffset":367216,
			"target":34962
		},
		{
			"buffer":0,
			"byteLength":1080,
			"byteOffset":369256,
			"target":34963
		},
		{
			"buffer":0,
			"byteLength":576,
			"byteOffset":370336,
			"target":34962
		},
		{
			"buffer":0,
			"byteLength":576,
			"byteOffset":370912,
			"target":34962
		},
		{
			"buffer":0,
			"byteLength":384,
			"byteOffset":371488,
			"target":34962
		},
		{
			"buffer":0,
			"byteLength":576,
			"byteOffset":371872,
			"target":34962
		},
		{
			"buffer":0,
			"byteLength":576,
			"byteOffset":372448,
			"target":34962
		},
		{
			"buffer":0,
			"byteLength":384,
			"byteOffset":373024,
			"target":34962
		},
		{
			"buffer":0,
			"byteLength":192,
			"byteOffset":373408,
			"target":34963
		}
	],
	"samplers":[
		{
			"magFilter":9729,
			"minFilter":9987
		}
	],
	"buffers":[
		{
			"byteLength":373600,
			"uri":"cvrkec.bin"
		}
	]
}
