{
	"asset":{
		"generator":"Khronos glTF Blender I/O v4.3.47",
		"version":"2.0"
	},
	"scene":0,
	"scenes":[
		{
			"name":"Scene",
			"nodes":[
				0,
				1,
				2,
				3,
				4,
				5,
				6,
				7,
				8,
				9
			]
		}
	],
	"nodes":[
		{
			"mesh":0,
			"name":"nohy03",
			"scale":[
				0.9181683659553528,
				0.037278831005096436,
				0.9181683659553528
			],
			"translation":[
				0,
				1.2946406602859497,
				0
			]
		},
		{
			"mesh":1,
			"name":"Nohy.001",
			"scale":[
				1,
				0.037278831005096436,
				1
			],
			"translation":[
				0,
				1.2946406602859497,
				0
			]
		},
		{
			"mesh":2,
			"name":"Nohy02",
			"rotation":[
				0,
				0.7071068286895752,
				0,
				0.7071068286895752
			],
			"scale":[
				0.20795011520385742,
				0.03278510645031929,
				0.7200766801834106
			],
			"translation":[
				0,
				0.6021090149879456,
				0
			]
		},
		{
			"mesh":3,
			"name":"kruh",
			"scale":[
				1.4554897546768188,
				0.0430000014603138,
				1.4554897546768188
			],
			"translation":[
				0,
				1.3015050888061523,
				0
			]
		},
		{
			"mesh":4,
			"name":"obdelnik",
			"scale":[
				1.128708839416504,
				0.0430000014603138,
				1.8394337892532349
			],
			"translation":[
				0,
				1.3018726110458374,
				0
			]
		},
		{
			"mesh":5,
			"name":"ctverec.001",
			"scale":[
				1.1739884614944458,
				0.037278831005096436,
				1.1739884614944458
			],
			"translation":[
				0,
				1.2946406602859497,
				0
			]
		},
		{
			"mesh":6,
			"name":"nohy04",
			"scale":[
				0.9181683659553528,
				0.048725929111242294,
				0.9181683659553528
			],
			"translation":[
				0,
				1.311793327331543,
				0
			]
		},
		{
			"mesh":7,
			"name":"nohy05",
			"scale":[
				0.9181683659553528,
				0.037278831005096436,
				0.9181683659553528
			],
			"translation":[
				0,
				1.2946406602859497,
				0
			]
		},
		{
			"mesh":8,
			"name":"ctverec.003",
			"scale":[
				0.9181683659553528,
				0.037278831005096436,
				0.9181683659553528
			],
			"translation":[
				0,
				1.2946406602859497,
				0
			]
		},
		{
			"mesh":9,
			"name":"nohy06",
			"rotation":[
				0,
				0.7071068286895752,
				0,
				0.7071068286895752
			],
			"scale":[
				0.20795011520385742,
				0.03278510645031929,
				0.7200766801834106
			],
			"translation":[
				0,
				0.6021090149879456,
				0
			]
		}
	],
	"materials":[
		{
			"doubleSided":true,
			"name":"Material.002",
			"pbrMetallicRoughness":{
				"baseColorFactor":[
					0.044768914580345154,
					0.8007664680480957,
					0.018125027418136597,
					1
				],
				"metallicFactor":0,
				"roughnessFactor":0.5
			}
		},
		{
			"doubleSided":true,
			"name":"Material.003",
			"pbrMetallicRoughness":{
				"baseColorFactor":[
					0.06530234962701797,
					0.8007664680480957,
					0.6625495553016663,
					1
				],
				"metallicFactor":0,
				"roughnessFactor":0.5
			}
		},
		{
			"doubleSided":true,
			"name":"Material.006",
			"pbrMetallicRoughness":{
				"baseColorFactor":[
					0.8000785112380981,
					0.009831013157963753,
					0.05926738679409027,
					1
				],
				"metallicFactor":0,
				"roughnessFactor":0.5
			}
		},
		{
			"doubleSided":true,
			"name":"d\u0159evo",
			"pbrMetallicRoughness":{
				"baseColorFactor":[
					0.2382175326347351,
					0.030320236459374428,
					0.009216731414198875,
					1
				],
				"metallicFactor":0,
				"roughnessFactor":0.5
			}
		},
		{
			"doubleSided":true,
			"name":"Material.004",
			"pbrMetallicRoughness":{
				"baseColorFactor":[
					0.8003851175308228,
					0.054727137088775635,
					0.4968763589859009,
					1
				],
				"metallicFactor":0,
				"roughnessFactor":0.5
			}
		},
		{
			"doubleSided":true,
			"name":"Material.005",
			"pbrMetallicRoughness":{
				"baseColorFactor":[
					0.044768914580345154,
					0.8007664680480957,
					0.018125027418136597,
					1
				],
				"metallicFactor":0,
				"roughnessFactor":0.5
			}
		},
		{
			"doubleSided":true,
			"name":"Material.009",
			"pbrMetallicRoughness":{
				"baseColorFactor":[
					0.044768914580345154,
					0.8007664680480957,
					0.018125027418136597,
					1
				],
				"metallicFactor":0,
				"roughnessFactor":0.5
			}
		},
		{
			"doubleSided":true,
			"name":"Material.010",
			"pbrMetallicRoughness":{
				"baseColorFactor":[
					0,
					0,
					0,
					1
				],
				"metallicFactor":0,
				"roughnessFactor":0.5
			}
		},
		{
			"doubleSided":true,
			"name":"Material.011",
			"pbrMetallicRoughness":{
				"baseColorFactor":[
					0.044768914580345154,
					0.8007664680480957,
					0.018125027418136597,
					1
				],
				"metallicFactor":0,
				"roughnessFactor":0.5
			}
		},
		{
			"doubleSided":true,
			"name":"Material.012",
			"pbrMetallicRoughness":{
				"baseColorFactor":[
					0.04094807058572769,
					0,
					0.005484903696924448,
					1
				],
				"metallicFactor":0,
				"roughnessFactor":0.5
			}
		}
	],
	"meshes":[
		{
			"name":"Cube.002",
			"primitives":[
				{
					"attributes":{
						"POSITION":0,
						"NORMAL":1,
						"TEXCOORD_0":2
					},
					"indices":3,
					"material":0
				}
			]
		},
		{
			"name":"Cube.003",
			"primitives":[
				{
					"attributes":{
						"POSITION":4,
						"NORMAL":5,
						"TEXCOORD_0":6
					},
					"indices":7,
					"material":1
				}
			]
		},
		{
			"name":"Cube.004",
			"primitives":[
				{
					"attributes":{
						"POSITION":8,
						"NORMAL":9,
						"TEXCOORD_0":10
					},
					"indices":11,
					"material":2
				}
			]
		},
		{
			"name":"Cylinder",
			"primitives":[
				{
					"attributes":{
						"POSITION":12,
						"NORMAL":13,
						"TEXCOORD_0":14
					},
					"indices":15,
					"material":3
				}
			]
		},
		{
			"name":"Cube.005",
			"primitives":[
				{
					"attributes":{
						"POSITION":16,
						"NORMAL":17,
						"TEXCOORD_0":18
					},
					"indices":19,
					"material":4
				}
			]
		},
		{
			"name":"Cube.006",
			"primitives":[
				{
					"attributes":{
						"POSITION":20,
						"NORMAL":21,
						"TEXCOORD_0":22
					},
					"indices":23,
					"material":5
				}
			]
		},
		{
			"name":"Cube.009",
			"primitives":[
				{
					"attributes":{
						"POSITION":24,
						"NORMAL":25,
						"TEXCOORD_0":26
					},
					"indices":27,
					"material":6
				}
			]
		},
		{
			"name":"Cube.010",
			"primitives":[
				{
					"attributes":{
						"POSITION":28,
						"NORMAL":29,
						"TEXCOORD_0":30
					},
					"indices":31,
					"material":7
				}
			]
		},
		{
			"name":"Cube.011",
			"primitives":[
				{
					"attributes":{
						"POSITION":32,
						"NORMAL":33,
						"TEXCOORD_0":34
					},
					"indices":35,
					"material":8
				}
			]
		},
		{
			"name":"Cube.012",
			"primitives":[
				{
					"attributes":{
						"POSITION":36,
						"NORMAL":37,
						"TEXCOORD_0":38
					},
					"indices":39,
					"material":9
				}
			]
		}
	],
	"accessors":[
		{
			"bufferView":0,
			"componentType":5126,
			"count":160,
			"max":[
				1.0577847957611084,
				-1,
				0.8747626543045044
			],
			"min":[
				-1.0577847957611084,
				-34.71968078613281,
				-0.8747626543045044
			],
			"type":"VEC3"
		},
		{
			"bufferView":1,
			"componentType":5126,
			"count":160,
			"type":"VEC3"
		},
		{
			"bufferView":2,
			"componentType":5126,
			"count":160,
			"type":"VEC2"
		},
		{
			"bufferView":3,
			"componentType":5123,
			"count":240,
			"type":"SCALAR"
		},
		{
			"bufferView":4,
			"componentType":5126,
			"count":96,
			"max":[
				0.9056126475334167,
				-1,
				0.8876601457595825
			],
			"min":[
				-0.9056126475334167,
				-34.71308898925781,
				-0.8876601457595825
			],
			"type":"VEC3"
		},
		{
			"bufferView":5,
			"componentType":5126,
			"count":96,
			"type":"VEC3"
		},
		{
			"bufferView":6,
			"componentType":5126,
			"count":96,
			"type":"VEC2"
		},
		{
			"bufferView":7,
			"componentType":5123,
			"count":144,
			"type":"SCALAR"
		},
		{
			"bufferView":8,
			"componentType":5126,
			"count":96,
			"max":[
				4.321133613586426,
				20.402053833007812,
				0.8802533745765686
			],
			"min":[
				-4.321133613586426,
				-17.634662628173828,
				-0.8471106886863708
			],
			"type":"VEC3"
		},
		{
			"bufferView":9,
			"componentType":5126,
			"count":96,
			"type":"VEC3"
		},
		{
			"bufferView":10,
			"componentType":5126,
			"count":96,
			"type":"VEC2"
		},
		{
			"bufferView":11,
			"componentType":5123,
			"count":192,
			"type":"SCALAR"
		},
		{
			"bufferView":12,
			"componentType":5126,
			"count":130,
			"max":[
				1,
				1,
				1
			],
			"min":[
				-1,
				-1,
				-1
			],
			"type":"VEC3"
		},
		{
			"bufferView":13,
			"componentType":5126,
			"count":130,
			"type":"VEC3"
		},
		{
			"bufferView":14,
			"componentType":5126,
			"count":130,
			"type":"VEC2"
		},
		{
			"bufferView":15,
			"componentType":5123,
			"count":372,
			"type":"SCALAR"
		},
		{
			"bufferView":16,
			"componentType":5126,
			"count":24,
			"max":[
				1,
				1,
				1
			],
			"min":[
				-1,
				-1,
				-1
			],
			"type":"VEC3"
		},
		{
			"bufferView":17,
			"componentType":5126,
			"count":24,
			"type":"VEC3"
		},
		{
			"bufferView":18,
			"componentType":5126,
			"count":24,
			"type":"VEC2"
		},
		{
			"bufferView":19,
			"componentType":5123,
			"count":36,
			"type":"SCALAR"
		},
		{
			"bufferView":20,
			"componentType":5126,
			"count":36,
			"max":[
				0,
				1,
				1
			],
			"min":[
				-1,
				-1,
				0
			],
			"type":"VEC3"
		},
		{
			"bufferView":21,
			"componentType":5126,
			"count":36,
			"type":"VEC3"
		},
		{
			"bufferView":22,
			"componentType":5126,
			"count":36,
			"type":"VEC2"
		},
		{
			"bufferView":23,
			"componentType":5123,
			"count":72,
			"type":"SCALAR"
		},
		{
			"bufferView":24,
			"componentType":5126,
			"count":96,
			"max":[
				-0.5273938179016113,
				-1,
				0.7533876895904541
			],
			"min":[
				-0.7322582006454468,
				-26.783832550048828,
				0.5485233068466187
			],
			"type":"VEC3"
		},
		{
			"bufferView":25,
			"componentType":5126,
			"count":96,
			"type":"VEC3"
		},
		{
			"bufferView":26,
			"componentType":5126,
			"count":96,
			"type":"VEC2"
		},
		{
			"bufferView":27,
			"componentType":5123,
			"count":372,
			"type":"SCALAR"
		},
		{
			"bufferView":28,
			"componentType":5126,
			"count":492,
			"max":[
				0.6653779149055481,
				-1,
				0.6867013573646545
			],
			"min":[
				-0.6653779149055481,
				-34.743770599365234,
				-0.6867013573646545
			],
			"type":"VEC3"
		},
		{
			"bufferView":29,
			"componentType":5126,
			"count":492,
			"type":"VEC3"
		},
		{
			"bufferView":30,
			"componentType":5126,
			"count":492,
			"type":"VEC2"
		},
		{
			"bufferView":31,
			"componentType":5123,
			"count":1152,
			"type":"SCALAR"
		},
		{
			"bufferView":32,
			"componentType":5126,
			"count":72,
			"max":[
				0,
				1,
				1
			],
			"min":[
				-1.0577847957611084,
				-34.71968078613281,
				0
			],
			"type":"VEC3"
		},
		{
			"bufferView":33,
			"componentType":5126,
			"count":72,
			"type":"VEC3"
		},
		{
			"bufferView":34,
			"componentType":5126,
			"count":72,
			"type":"VEC2"
		},
		{
			"bufferView":35,
			"componentType":5123,
			"count":120,
			"type":"SCALAR"
		},
		{
			"bufferView":36,
			"componentType":5126,
			"count":242,
			"max":[
				4.321133613586426,
				20.402053833007812,
				0.8802533745765686
			],
			"min":[
				-4.321133613586426,
				-17.664588928222656,
				-0.8471106886863708
			],
			"type":"VEC3"
		},
		{
			"bufferView":37,
			"componentType":5126,
			"count":242,
			"type":"VEC3"
		},
		{
			"bufferView":38,
			"componentType":5126,
			"count":242,
			"type":"VEC2"
		},
		{
			"bufferView":39,
			"componentType":5123,
			"count":504,
			"type":"SCALAR"
		}
	],
	"bufferViews":[
		{
			"buffer":0,
			"byteLength":1920,
			"byteOffset":0,
			"target":34962
		},
		{
			"buffer":0,
			"byteLength":1920,
			"byteOffset":1920,
			"target":34962
		},
		{
			"buffer":0,
			"byteLength":1280,
			"byteOffset":3840,
			"target":34962
		},
		{
			"buffer":0,
			"byteLength":480,
			"byteOffset":5120,
			"target":34963
		},
		{
			"buffer":0,
			"byteLength":1152,
			"byteOffset":5600,
			"target":34962
		},
		{
			"buffer":0,
			"byteLength":1152,
			"byteOffset":6752,
			"target":34962
		},
		{
			"buffer":0,
			"byteLength":768,
			"byteOffset":7904,
			"target":34962
		},
		{
			"buffer":0,
			"byteLength":288,
			"byteOffset":8672,
			"target":34963
		},
		{
			"buffer":0,
			"byteLength":1152,
			"byteOffset":8960,
			"target":34962
		},
		{
			"buffer":0,
			"byteLength":1152,
			"byteOffset":10112,
			"target":34962
		},
		{
			"buffer":0,
			"byteLength":768,
			"byteOffset":11264,
			"target":34962
		},
		{
			"buffer":0,
			"byteLength":384,
			"byteOffset":12032,
			"target":34963
		},
		{
			"buffer":0,
			"byteLength":1560,
			"byteOffset":12416,
			"target":34962
		},
		{
			"buffer":0,
			"byteLength":1560,
			"byteOffset":13976,
			"target":34962
		},
		{
			"buffer":0,
			"byteLength":1040,
			"byteOffset":15536,
			"target":34962
		},
		{
			"buffer":0,
			"byteLength":744,
			"byteOffset":16576,
			"target":34963
		},
		{
			"buffer":0,
			"byteLength":288,
			"byteOffset":17320,
			"target":34962
		},
		{
			"buffer":0,
			"byteLength":288,
			"byteOffset":17608,
			"target":34962
		},
		{
			"buffer":0,
			"byteLength":192,
			"byteOffset":17896,
			"target":34962
		},
		{
			"buffer":0,
			"byteLength":72,
			"byteOffset":18088,
			"target":34963
		},
		{
			"buffer":0,
			"byteLength":432,
			"byteOffset":18160,
			"target":34962
		},
		{
			"buffer":0,
			"byteLength":432,
			"byteOffset":18592,
			"target":34962
		},
		{
			"buffer":0,
			"byteLength":288,
			"byteOffset":19024,
			"target":34962
		},
		{
			"buffer":0,
			"byteLength":144,
			"byteOffset":19312,
			"target":34963
		},
		{
			"buffer":0,
			"byteLength":1152,
			"byteOffset":19456,
			"target":34962
		},
		{
			"buffer":0,
			"byteLength":1152,
			"byteOffset":20608,
			"target":34962
		},
		{
			"buffer":0,
			"byteLength":768,
			"byteOffset":21760,
			"target":34962
		},
		{
			"buffer":0,
			"byteLength":744,
			"byteOffset":22528,
			"target":34963
		},
		{
			"buffer":0,
			"byteLength":5904,
			"byteOffset":23272,
			"target":34962
		},
		{
			"buffer":0,
			"byteLength":5904,
			"byteOffset":29176,
			"target":34962
		},
		{
			"buffer":0,
			"byteLength":3936,
			"byteOffset":35080,
			"target":34962
		},
		{
			"buffer":0,
			"byteLength":2304,
			"byteOffset":39016,
			"target":34963
		},
		{
			"buffer":0,
			"byteLength":864,
			"byteOffset":41320,
			"target":34962
		},
		{
			"buffer":0,
			"byteLength":864,
			"byteOffset":42184,
			"target":34962
		},
		{
			"buffer":0,
			"byteLength":576,
			"byteOffset":43048,
			"target":34962
		},
		{
			"buffer":0,
			"byteLength":240,
			"byteOffset":43624,
			"target":34963
		},
		{
			"buffer":0,
			"byteLength":2904,
			"byteOffset":43864,
			"target":34962
		},
		{
			"buffer":0,
			"byteLength":2904,
			"byteOffset":46768,
			"target":34962
		},
		{
			"buffer":0,
			"byteLength":1936,
			"byteOffset":49672,
			"target":34962
		},
		{
			"buffer":0,
			"byteLength":1008,
			"byteOffset":51608,
			"target":34963
		}
	],
	"buffers":[
		{
			"byteLength":52616,
			"uri":"table1.bin"
		}
	]
}
