{
	"asset":{
		"generator":"Khronos glTF Blender I/O v4.3.47",
		"version":"2.0"
	},
	"scene":0,
	"scenes":[
		{
			"name":"Scene",
			"nodes":[
				0,
				1,
				2,
				3,
				4,
				5,
				6,
				7,
				8,
				9,
				10,
				11,
				12
			]
		}
	],
	"nodes":[
		{
			"mesh":0,
			"name":"nohy03",
			"scale":[
				0.9181683659553528,
				0.037278831005096436,
				0.9181683659553528
			],
			"translation":[
				0,
				1.2946406602859497,
				0
			]
		},
		{
			"mesh":1,
			"name":"Nohy.001",
			"scale":[
				1,
				0.037278831005096436,
				1
			],
			"translation":[
				0,
				1.2946406602859497,
				0
			]
		},
		{
			"mesh":2,
			"name":"Nohy02",
			"rotation":[
				0,
				0.7071068286895752,
				0,
				0.7071068286895752
			],
			"scale":[
				0.20795011520385742,
				0.03278510645031929,
				0.7200766801834106
			],
			"translation":[
				0,
				0.6021090149879456,
				0
			]
		},
		{
			"mesh":3,
			"name":"kruh",
			"scale":[
				1.4554897546768188,
				0.0430000014603138,
				1.4554897546768188
			],
			"translation":[
				0,
				1.3015050888061523,
				0
			]
		},
		{
			"mesh":4,
			"name":"obdelnik",
			"scale":[
				1.128708839416504,
				0.0430000014603138,
				1.8394337892532349
			],
			"translation":[
				0,
				1.3018726110458374,
				0
			]
		},
		{
			"mesh":5,
			"name":"cverec1",
			"scale":[
				1.1739884614944458,
				0.037278831005096436,
				1.1739884614944458
			],
			"translation":[
				0,
				1.2946406602859497,
				0
			]
		},
		{
			"mesh":6,
			"name":"nohy04",
			"scale":[
				0.9181683659553528,
				0.048725929111242294,
				0.9181683659553528
			],
			"translation":[
				0,
				1.311793327331543,
				0
			]
		},
		{
			"mesh":7,
			"name":"nohy05",
			"scale":[
				0.9181683659553528,
				0.037278831005096436,
				0.9181683659553528
			],
			"translation":[
				0,
				1.2946406602859497,
				0
			]
		},
		{
			"mesh":8,
			"name":"ctverec.003",
			"scale":[
				0.9181683659553528,
				0.037278831005096436,
				0.9181683659553528
			],
			"translation":[
				0,
				1.2946406602859497,
				0
			]
		},
		{
			"mesh":9,
			"name":"nohy06",
			"rotation":[
				0,
				0.7071068286895752,
				0,
				0.7071068286895752
			],
			"scale":[
				0.20795011520385742,
				0.03278510645031929,
				0.7200766801834106
			],
			"translation":[
				0,
				0.6021090149879456,
				0
			]
		},
		{
			"mesh":10,
			"name":"nohy07",
			"rotation":[
				0,
				0.7071068286895752,
				0,
				0.7071068286895752
			],
			"scale":[
				1.0112078189849854,
				0.03210989385843277,
				1.0112078189849854
			],
			"translation":[
				0,
				1.2946406602859497,
				0
			]
		},
		{
			"mesh":11,
			"name":"ctverec2",
			"scale":[
				1.1739884614944458,
				0.037278831005096436,
				1.1739884614944458
			],
			"translation":[
				0,
				1.2946406602859497,
				0
			]
		},
		{
			"mesh":12,
			"name":"kruh.001",
			"scale":[
				1.4554897546768188,
				0.003192080417647958,
				1.4554897546768188
			],
			"translation":[
				0,
				1.3015050888061523,
				0
			]
		}
	],
	"materials":[
		{
			"doubleSided":true,
			"name":"Material.002",
			"pbrMetallicRoughness":{
				"baseColorFactor":[
					0.044768914580345154,
					0.8007664680480957,
					0.018125027418136597,
					1
				],
				"metallicFactor":0,
				"roughnessFactor":0.5
			}
		},
		{
			"doubleSided":true,
			"name":"Material.003",
			"pbrMetallicRoughness":{
				"baseColorFactor":[
					0.06530234962701797,
					0.8007664680480957,
					0.6625495553016663,
					1
				],
				"metallicFactor":0,
				"roughnessFactor":0.5
			}
		},
		{
			"doubleSided":true,
			"name":"Material.006",
			"pbrMetallicRoughness":{
				"baseColorFactor":[
					0.8000785112380981,
					0.009831013157963753,
					0.05926738679409027,
					1
				],
				"metallicFactor":0,
				"roughnessFactor":0.5
			}
		},
		{
			"doubleSided":true,
			"name":"d\u0159evo",
			"pbrMetallicRoughness":{
				"baseColorFactor":[
					0.2382175326347351,
					0.030320236459374428,
					0.009216731414198875,
					1
				],
				"metallicFactor":0,
				"roughnessFactor":0.5
			}
		},
		{
			"doubleSided":true,
			"name":"Material.004",
			"pbrMetallicRoughness":{
				"baseColorFactor":[
					0.8003851175308228,
					0.054727137088775635,
					0.4968763589859009,
					1
				],
				"metallicFactor":0,
				"roughnessFactor":0.5
			}
		},
		{
			"doubleSided":true,
			"name":"Material.005",
			"pbrMetallicRoughness":{
				"baseColorFactor":[
					0.044768914580345154,
					0.8007664680480957,
					0.018125027418136597,
					1
				],
				"metallicFactor":0,
				"roughnessFactor":0.5
			}
		},
		{
			"doubleSided":true,
			"name":"Material.009",
			"pbrMetallicRoughness":{
				"baseColorFactor":[
					0.044768914580345154,
					0.8007664680480957,
					0.018125027418136597,
					1
				],
				"metallicFactor":0,
				"roughnessFactor":0.5
			}
		},
		{
			"doubleSided":true,
			"name":"Material.010",
			"pbrMetallicRoughness":{
				"baseColorFactor":[
					0,
					0,
					0,
					1
				],
				"metallicFactor":0,
				"roughnessFactor":0.5
			}
		},
		{
			"doubleSided":true,
			"name":"Material.011",
			"pbrMetallicRoughness":{
				"baseColorFactor":[
					0.044768914580345154,
					0.8007664680480957,
					0.018125027418136597,
					1
				],
				"metallicFactor":0,
				"roughnessFactor":0.5
			}
		},
		{
			"doubleSided":true,
			"name":"Material.012",
			"pbrMetallicRoughness":{
				"baseColorFactor":[
					0.04094807058572769,
					0,
					0.005484903696924448,
					1
				],
				"metallicFactor":0,
				"roughnessFactor":0.5
			}
		},
		{
			"doubleSided":true,
			"name":"Material.013",
			"pbrMetallicRoughness":{
				"baseColorFactor":[
					0.044768914580345154,
					0.8007664680480957,
					0.018125027418136597,
					1
				],
				"metallicFactor":0,
				"roughnessFactor":0.5
			}
		},
		{
			"doubleSided":true,
			"name":"Material.014",
			"pbrMetallicRoughness":{
				"baseColorFactor":[
					0.044768914580345154,
					0.8007664680480957,
					0.018125027418136597,
					1
				],
				"metallicFactor":0,
				"roughnessFactor":0.5
			}
		},
		{
			"doubleSided":true,
			"name":"d\u0159evo.001",
			"pbrMetallicRoughness":{
				"baseColorFactor":[
					0.2382175326347351,
					0.030320236459374428,
					0.009216731414198875,
					1
				],
				"metallicFactor":0,
				"roughnessFactor":0.5
			}
		}
	],
	"meshes":[
		{
			"name":"Cube.002",
			"primitives":[
				{
					"attributes":{
						"POSITION":0,
						"NORMAL":1,
						"TEXCOORD_0":2
					},
					"indices":3,
					"material":0
				}
			]
		},
		{
			"name":"Cube.003",
			"primitives":[
				{
					"attributes":{
						"POSITION":4,
						"NORMAL":5,
						"TEXCOORD_0":6
					},
					"indices":7,
					"material":1
				}
			]
		},
		{
			"name":"Cube.004",
			"primitives":[
				{
					"attributes":{
						"POSITION":8,
						"NORMAL":9,
						"TEXCOORD_0":10
					},
					"indices":11,
					"material":2
				}
			]
		},
		{
			"name":"Cylinder",
			"primitives":[
				{
					"attributes":{
						"POSITION":12,
						"NORMAL":13,
						"TEXCOORD_0":14
					},
					"indices":15,
					"material":3
				}
			]
		},
		{
			"name":"Cube.005",
			"primitives":[
				{
					"attributes":{
						"POSITION":16,
						"NORMAL":17,
						"TEXCOORD_0":18
					},
					"indices":19,
					"material":4
				}
			]
		},
		{
			"name":"Cube.006",
			"primitives":[
				{
					"attributes":{
						"POSITION":20,
						"NORMAL":21,
						"TEXCOORD_0":22
					},
					"indices":23,
					"material":5
				}
			]
		},
		{
			"name":"Cube.009",
			"primitives":[
				{
					"attributes":{
						"POSITION":24,
						"NORMAL":25,
						"TEXCOORD_0":26
					},
					"indices":27,
					"material":6
				}
			]
		},
		{
			"name":"Cube.010",
			"primitives":[
				{
					"attributes":{
						"POSITION":28,
						"NORMAL":29,
						"TEXCOORD_0":30
					},
					"indices":31,
					"material":7
				}
			]
		},
		{
			"name":"Cube.011",
			"primitives":[
				{
					"attributes":{
						"POSITION":32,
						"NORMAL":33,
						"TEXCOORD_0":34
					},
					"indices":35,
					"material":8
				}
			]
		},
		{
			"name":"Cube.012",
			"primitives":[
				{
					"attributes":{
						"POSITION":36,
						"NORMAL":37,
						"TEXCOORD_0":38
					},
					"indices":39,
					"material":9
				}
			]
		},
		{
			"name":"Cube.013",
			"primitives":[
				{
					"attributes":{
						"POSITION":40,
						"NORMAL":41,
						"TEXCOORD_0":42
					},
					"indices":43,
					"material":10
				}
			]
		},
		{
			"name":"Cube.001",
			"primitives":[
				{
					"attributes":{
						"POSITION":44,
						"NORMAL":45,
						"TEXCOORD_0":46
					},
					"indices":47,
					"material":11
				}
			]
		},
		{
			"name":"Cylinder.001",
			"primitives":[
				{
					"attributes":{
						"POSITION":48,
						"NORMAL":49,
						"TEXCOORD_0":50
					},
					"indices":51,
					"material":12
				}
			]
		}
	],
	"accessors":[
		{
			"bufferView":0,
			"componentType":5126,
			"count":80,
			"max":[
				1.0577847957611084,
				-1,
				-0.5621696710586548
			],
			"min":[
				-1.0577847957611084,
				-34.71968078613281,
				-0.8747626543045044
			],
			"type":"VEC3"
		},
		{
			"bufferView":1,
			"componentType":5126,
			"count":80,
			"type":"VEC3"
		},
		{
			"bufferView":2,
			"componentType":5126,
			"count":80,
			"type":"VEC2"
		},
		{
			"bufferView":3,
			"componentType":5123,
			"count":120,
			"type":"SCALAR"
		},
		{
			"bufferView":4,
			"componentType":5126,
			"count":48,
			"max":[
				0.9056126475334167,
				-1,
				-0.7097004652023315
			],
			"min":[
				-0.9056126475334167,
				-34.71308898925781,
				-0.8876601457595825
			],
			"type":"VEC3"
		},
		{
			"bufferView":5,
			"componentType":5126,
			"count":48,
			"type":"VEC3"
		},
		{
			"bufferView":6,
			"componentType":5126,
			"count":48,
			"type":"VEC2"
		},
		{
			"bufferView":7,
			"componentType":5123,
			"count":72,
			"type":"SCALAR"
		},
		{
			"bufferView":8,
			"componentType":5126,
			"count":48,
			"max":[
				4.321133613586426,
				20.402053833007812,
				0.8802533745765686
			],
			"min":[
				3.457451820373535,
				-17.634662628173828,
				-0.8471106886863708
			],
			"type":"VEC3"
		},
		{
			"bufferView":9,
			"componentType":5126,
			"count":48,
			"type":"VEC3"
		},
		{
			"bufferView":10,
			"componentType":5126,
			"count":48,
			"type":"VEC2"
		},
		{
			"bufferView":11,
			"componentType":5123,
			"count":96,
			"type":"SCALAR"
		},
		{
			"bufferView":12,
			"componentType":5126,
			"count":130,
			"max":[
				1,
				1,
				1
			],
			"min":[
				-1,
				-1,
				-1
			],
			"type":"VEC3"
		},
		{
			"bufferView":13,
			"componentType":5126,
			"count":130,
			"type":"VEC3"
		},
		{
			"bufferView":14,
			"componentType":5126,
			"count":130,
			"type":"VEC2"
		},
		{
			"bufferView":15,
			"componentType":5123,
			"count":372,
			"type":"SCALAR"
		},
		{
			"bufferView":16,
			"componentType":5126,
			"count":24,
			"max":[
				1,
				1,
				1
			],
			"min":[
				-1,
				-1,
				-1
			],
			"type":"VEC3"
		},
		{
			"bufferView":17,
			"componentType":5126,
			"count":24,
			"type":"VEC3"
		},
		{
			"bufferView":18,
			"componentType":5126,
			"count":24,
			"type":"VEC2"
		},
		{
			"bufferView":19,
			"componentType":5123,
			"count":36,
			"type":"SCALAR"
		},
		{
			"bufferView":20,
			"componentType":5126,
			"count":243,
			"max":[
				1.0396625995635986,
				1,
				1.0396625995635986
			],
			"min":[
				-1.0396625995635986,
				-1,
				-1.0396625995635986
			],
			"type":"VEC3"
		},
		{
			"bufferView":21,
			"componentType":5126,
			"count":243,
			"type":"VEC3"
		},
		{
			"bufferView":22,
			"componentType":5126,
			"count":243,
			"type":"VEC2"
		},
		{
			"bufferView":23,
			"componentType":5123,
			"count":594,
			"type":"SCALAR"
		},
		{
			"bufferView":24,
			"componentType":5126,
			"count":192,
			"max":[
				0.7322582006454468,
				-1,
				-0.5485233068466187
			],
			"min":[
				-0.7322582006454468,
				-26.783832550048828,
				-0.7533876895904541
			],
			"type":"VEC3"
		},
		{
			"bufferView":25,
			"componentType":5126,
			"count":192,
			"type":"VEC3"
		},
		{
			"bufferView":26,
			"componentType":5126,
			"count":192,
			"type":"VEC2"
		},
		{
			"bufferView":27,
			"componentType":5123,
			"count":744,
			"type":"SCALAR"
		},
		{
			"bufferView":28,
			"componentType":5126,
			"count":246,
			"max":[
				0.6653779149055481,
				-1,
				-0.17994773387908936
			],
			"min":[
				-0.6653779149055481,
				-34.743770599365234,
				-0.6867013573646545
			],
			"type":"VEC3"
		},
		{
			"bufferView":29,
			"componentType":5126,
			"count":246,
			"type":"VEC3"
		},
		{
			"bufferView":30,
			"componentType":5126,
			"count":246,
			"type":"VEC2"
		},
		{
			"bufferView":31,
			"componentType":5123,
			"count":576,
			"type":"SCALAR"
		},
		{
			"bufferView":32,
			"componentType":5126,
			"count":72,
			"max":[
				0,
				1,
				1
			],
			"min":[
				-1.0577847957611084,
				-34.71968078613281,
				0
			],
			"type":"VEC3"
		},
		{
			"bufferView":33,
			"componentType":5126,
			"count":72,
			"type":"VEC3"
		},
		{
			"bufferView":34,
			"componentType":5126,
			"count":72,
			"type":"VEC2"
		},
		{
			"bufferView":35,
			"componentType":5123,
			"count":120,
			"type":"SCALAR"
		},
		{
			"bufferView":36,
			"componentType":5126,
			"count":242,
			"max":[
				4.321133613586426,
				20.402053833007812,
				0.8802533745765686
			],
			"min":[
				-4.321133613586426,
				-17.664588928222656,
				-0.8471106886863708
			],
			"type":"VEC3"
		},
		{
			"bufferView":37,
			"componentType":5126,
			"count":242,
			"type":"VEC3"
		},
		{
			"bufferView":38,
			"componentType":5126,
			"count":242,
			"type":"VEC2"
		},
		{
			"bufferView":39,
			"componentType":5123,
			"count":504,
			"type":"SCALAR"
		},
		{
			"bufferView":40,
			"componentType":5126,
			"count":204,
			"max":[
				0.5410102009773254,
				-1,
				0.5586294531822205
			],
			"min":[
				0.44751620292663574,
				-40.98399353027344,
				-0.5586294531822205
			],
			"type":"VEC3"
		},
		{
			"bufferView":41,
			"componentType":5126,
			"count":204,
			"type":"VEC3"
		},
		{
			"bufferView":42,
			"componentType":5126,
			"count":204,
			"type":"VEC2"
		},
		{
			"bufferView":43,
			"componentType":5123,
			"count":396,
			"type":"SCALAR"
		},
		{
			"bufferView":44,
			"componentType":5126,
			"count":170,
			"max":[
				1,
				1,
				1
			],
			"min":[
				-1,
				-1,
				-1
			],
			"type":"VEC3"
		},
		{
			"bufferView":45,
			"componentType":5126,
			"count":170,
			"type":"VEC3"
		},
		{
			"bufferView":46,
			"componentType":5126,
			"count":170,
			"type":"VEC2"
		},
		{
			"bufferView":47,
			"componentType":5123,
			"count":480,
			"type":"SCALAR"
		},
		{
			"bufferView":48,
			"componentType":5126,
			"count":340,
			"max":[
				1.0414347648620605,
				13.305313110351562,
				1.0405365228652954
			],
			"min":[
				-1.0396382808685303,
				-1,
				-1.0405365228652954
			],
			"type":"VEC3"
		},
		{
			"bufferView":49,
			"componentType":5126,
			"count":340,
			"type":"VEC3"
		},
		{
			"bufferView":50,
			"componentType":5126,
			"count":340,
			"type":"VEC2"
		},
		{
			"bufferView":51,
			"componentType":5123,
			"count":942,
			"type":"SCALAR"
		}
	],
	"bufferViews":[
		{
			"buffer":0,
			"byteLength":960,
			"byteOffset":0,
			"target":34962
		},
		{
			"buffer":0,
			"byteLength":960,
			"byteOffset":960,
			"target":34962
		},
		{
			"buffer":0,
			"byteLength":640,
			"byteOffset":1920,
			"target":34962
		},
		{
			"buffer":0,
			"byteLength":240,
			"byteOffset":2560,
			"target":34963
		},
		{
			"buffer":0,
			"byteLength":576,
			"byteOffset":2800,
			"target":34962
		},
		{
			"buffer":0,
			"byteLength":576,
			"byteOffset":3376,
			"target":34962
		},
		{
			"buffer":0,
			"byteLength":384,
			"byteOffset":3952,
			"target":34962
		},
		{
			"buffer":0,
			"byteLength":144,
			"byteOffset":4336,
			"target":34963
		},
		{
			"buffer":0,
			"byteLength":576,
			"byteOffset":4480,
			"target":34962
		},
		{
			"buffer":0,
			"byteLength":576,
			"byteOffset":5056,
			"target":34962
		},
		{
			"buffer":0,
			"byteLength":384,
			"byteOffset":5632,
			"target":34962
		},
		{
			"buffer":0,
			"byteLength":192,
			"byteOffset":6016,
			"target":34963
		},
		{
			"buffer":0,
			"byteLength":1560,
			"byteOffset":6208,
			"target":34962
		},
		{
			"buffer":0,
			"byteLength":1560,
			"byteOffset":7768,
			"target":34962
		},
		{
			"buffer":0,
			"byteLength":1040,
			"byteOffset":9328,
			"target":34962
		},
		{
			"buffer":0,
			"byteLength":744,
			"byteOffset":10368,
			"target":34963
		},
		{
			"buffer":0,
			"byteLength":288,
			"byteOffset":11112,
			"target":34962
		},
		{
			"buffer":0,
			"byteLength":288,
			"byteOffset":11400,
			"target":34962
		},
		{
			"buffer":0,
			"byteLength":192,
			"byteOffset":11688,
			"target":34962
		},
		{
			"buffer":0,
			"byteLength":72,
			"byteOffset":11880,
			"target":34963
		},
		{
			"buffer":0,
			"byteLength":2916,
			"byteOffset":11952,
			"target":34962
		},
		{
			"buffer":0,
			"byteLength":2916,
			"byteOffset":14868,
			"target":34962
		},
		{
			"buffer":0,
			"byteLength":1944,
			"byteOffset":17784,
			"target":34962
		},
		{
			"buffer":0,
			"byteLength":1188,
			"byteOffset":19728,
			"target":34963
		},
		{
			"buffer":0,
			"byteLength":2304,
			"byteOffset":20916,
			"target":34962
		},
		{
			"buffer":0,
			"byteLength":2304,
			"byteOffset":23220,
			"target":34962
		},
		{
			"buffer":0,
			"byteLength":1536,
			"byteOffset":25524,
			"target":34962
		},
		{
			"buffer":0,
			"byteLength":1488,
			"byteOffset":27060,
			"target":34963
		},
		{
			"buffer":0,
			"byteLength":2952,
			"byteOffset":28548,
			"target":34962
		},
		{
			"buffer":0,
			"byteLength":2952,
			"byteOffset":31500,
			"target":34962
		},
		{
			"buffer":0,
			"byteLength":1968,
			"byteOffset":34452,
			"target":34962
		},
		{
			"buffer":0,
			"byteLength":1152,
			"byteOffset":36420,
			"target":34963
		},
		{
			"buffer":0,
			"byteLength":864,
			"byteOffset":37572,
			"target":34962
		},
		{
			"buffer":0,
			"byteLength":864,
			"byteOffset":38436,
			"target":34962
		},
		{
			"buffer":0,
			"byteLength":576,
			"byteOffset":39300,
			"target":34962
		},
		{
			"buffer":0,
			"byteLength":240,
			"byteOffset":39876,
			"target":34963
		},
		{
			"buffer":0,
			"byteLength":2904,
			"byteOffset":40116,
			"target":34962
		},
		{
			"buffer":0,
			"byteLength":2904,
			"byteOffset":43020,
			"target":34962
		},
		{
			"buffer":0,
			"byteLength":1936,
			"byteOffset":45924,
			"target":34962
		},
		{
			"buffer":0,
			"byteLength":1008,
			"byteOffset":47860,
			"target":34963
		},
		{
			"buffer":0,
			"byteLength":2448,
			"byteOffset":48868,
			"target":34962
		},
		{
			"buffer":0,
			"byteLength":2448,
			"byteOffset":51316,
			"target":34962
		},
		{
			"buffer":0,
			"byteLength":1632,
			"byteOffset":53764,
			"target":34962
		},
		{
			"buffer":0,
			"byteLength":792,
			"byteOffset":55396,
			"target":34963
		},
		{
			"buffer":0,
			"byteLength":2040,
			"byteOffset":56188,
			"target":34962
		},
		{
			"buffer":0,
			"byteLength":2040,
			"byteOffset":58228,
			"target":34962
		},
		{
			"buffer":0,
			"byteLength":1360,
			"byteOffset":60268,
			"target":34962
		},
		{
			"buffer":0,
			"byteLength":960,
			"byteOffset":61628,
			"target":34963
		},
		{
			"buffer":0,
			"byteLength":4080,
			"byteOffset":62588,
			"target":34962
		},
		{
			"buffer":0,
			"byteLength":4080,
			"byteOffset":66668,
			"target":34962
		},
		{
			"buffer":0,
			"byteLength":2720,
			"byteOffset":70748,
			"target":34962
		},
		{
			"buffer":0,
			"byteLength":1884,
			"byteOffset":73468,
			"target":34963
		}
	],
	"buffers":[
		{
			"byteLength":75352,
			"uri":"table.bin"
		}
	]
}
