<svg width="20" height="20" viewBox="0 0 20 20" fill="none" xmlns="http://www.w3.org/2000/svg">
<g clip-path="url(#clip0_10387_6687)">
<path d="M10 20C15.5228 20 20 15.5228 20 10C20 4.47715 15.5228 0 10 0C4.47715 0 0 4.47715 0 10C0 15.5228 4.47715 20 10 20Z" fill="#F0F0F0"/>
<path d="M9.13121 10C9.13121 10 2.93555 17.0725 2.92969 17.0711C4.7393 18.8807 7.23934 20 10.0008 20C15.5236 20 20.0008 15.5228 20.0008 10H9.13121Z" fill="#D80027"/>
<path d="M2.92893 2.92969C-0.976309 6.83492 -0.976309 13.1666 2.92893 17.0719C4.54272 15.4581 6.09479 13.906 10 10.0008L2.92893 2.92969Z" fill="#0052B4"/>
</g>
<defs>
<clipPath id="clip0_10387_6687">
<rect width="20" height="20" fill="white"/>
</clipPath>
</defs>
</svg>
