<svg width="126" height="205" viewBox="0 0 126 205" fill="none" xmlns="http://www.w3.org/2000/svg">
<path d="M83.3787 148.523C73.7787 165.323 65.712 192.523 62.8787 204.023C62.8787 198.423 54.5453 175.689 50.3787 165.022C47.9787 156.222 26.3787 123.022 15.8787 107.522C-15.7213 59.9225 7.04533 25.3558 22.3787 14.0225C53.9787 -10.3775 87.5453 2.5225 100.379 12.0225C127.979 30.4225 127.212 64.6892 123.379 79.5225C120.979 89.5225 95.712 129.689 83.3787 148.523Z" fill="white"/>
<path d="M26 77.3171V36.6132M26 36.6132L63.7573 20L99.2788 36.6132L63.7573 53.2264L26 36.6132Z" stroke="#272C38" stroke-width="3" stroke-linecap="round" stroke-linejoin="round"/>
<path d="M100.7 86.1419L63.6977 102L27.4507 86.1419L63.6977 69.5287L100.7 86.1419ZM100.7 86.1419V46.1191" stroke="#98BA49" stroke-width="3" stroke-linecap="round" stroke-linejoin="round"/>
</svg>
