<svg width="33" height="52" viewBox="0 0 33 52" fill="none" xmlns="http://www.w3.org/2000/svg">
<path d="M17.5038 51.3584L17.4689 51.5C17.4689 50.1035 15.9186 46.2387 13.8226 42.1538C10.2368 35.1654 7.83742 31.6797 5.2189 27.8142C-2.6616 15.9436 3.01602 7.3233 6.83988 4.49697C14.7204 -1.58797 23.0913 1.62907 26.2917 3.9982C33.1747 8.58685 32.6397 17.8749 31.6837 21.5741C29.6859 29.3049 23.2821 36.1607 20.7109 42.1538C18.5037 47.2983 18.1857 48.5896 17.5038 51.3584Z" fill="white" stroke="#98BA49"/>
<path d="M7.49365 20.7803V10.6295M7.49365 10.6295L16.9097 6.48645L25.7681 10.6295L16.9097 14.7725L7.49365 10.6295Z" stroke="#272C38" stroke-linecap="round" stroke-linejoin="round"/>
<path d="M26.1225 22.9811L16.8948 26.9358L7.85547 22.9811L16.8948 18.8381L26.1225 22.9811ZM26.1225 22.9811V13.0001" stroke="#98BA49" stroke-linecap="round" stroke-linejoin="round"/>
</svg>
