<svg width="500" height="500" viewBox="0 0 500 500" fill="none" xmlns="http://www.w3.org/2000/svg">
<path d="M211.676 8.03162L250 5.01546L288.324 8.03162L325.704 17.0059L361.221 31.7172L393.998 51.8033L423.23 76.7698L448.197 106.002L468.283 138.779L482.994 174.296L491.968 211.676L494.985 250L491.968 288.324L482.994 325.704L468.283 361.221L448.197 393.998L423.23 423.23L393.998 448.197L361.221 468.283L325.704 482.994L288.324 491.968L250 494.985L211.676 491.968L174.296 482.994L138.779 468.283L106.002 448.197L76.7698 423.23L51.8033 393.998L31.7172 361.221L17.0059 325.704L8.03162 288.324L5.01546 250L8.03162 211.676L17.0058 174.296L31.7172 138.779L51.8034 106.002L76.7698 76.7698L106.002 51.8034L138.779 31.7172L174.296 17.0058L211.676 8.03162Z" stroke="black" stroke-width="10"/>
</svg>
