<svg width="35" height="35" viewBox="0 0 35 35" fill="none" xmlns="http://www.w3.org/2000/svg">
<path d="M2.46967 17.4697C2.17678 17.7626 2.17678 18.2374 2.46967 18.5303L7.24264 23.3033C7.53553 23.5962 8.01041 23.5962 8.3033 23.3033C8.59619 23.0104 8.59619 22.5355 8.3033 22.2426L4.06066 18L8.3033 13.7574C8.59619 13.4645 8.59619 12.9896 8.3033 12.6967C8.01041 12.4038 7.53553 12.4038 7.24264 12.6967L2.46967 17.4697ZM32.5303 18.5303C32.8232 18.2374 32.8232 17.7626 32.5303 17.4697L27.7574 12.6967C27.4645 12.4038 26.9896 12.4038 26.6967 12.6967C26.4038 12.9896 26.4038 13.4645 26.6967 13.7574L30.9393 18L26.6967 22.2426C26.4038 22.5355 26.4038 23.0104 26.6967 23.3033C26.9896 23.5962 27.4645 23.5962 27.7574 23.3033L32.5303 18.5303ZM3 18.75L32 18.75L32 17.25L3 17.25L3 18.75Z" fill="#98BA49"/>
</svg>
