<svg width="35" height="35" viewBox="0 0 35 35" fill="none" xmlns="http://www.w3.org/2000/svg">
<rect x="5.20703" y="16.6206" width="11.7586" height="3.2069" transform="rotate(90 5.20703 16.6206)" fill="black"/>
<rect x="32.998" y="16.6206" width="11.7586" height="3.2069" transform="rotate(90 32.998 16.6206)" fill="black"/>
<rect x="1" y="14" width="32.9333" height="3.4069" fill="black"/>
<path d="M17.4697 26.5303C17.7626 26.8232 18.2374 26.8232 18.5303 26.5303L23.3033 21.7574C23.5962 21.4645 23.5962 20.9896 23.3033 20.6967C23.0104 20.4038 22.5355 20.4038 22.2426 20.6967L18 24.9393L13.7574 20.6967C13.4645 20.4038 12.9896 20.4038 12.6967 20.6967C12.4038 20.9896 12.4038 21.4645 12.6967 21.7574L17.4697 26.5303ZM18.5303 5.46967C18.2374 5.17678 17.7626 5.17678 17.4697 5.46967L12.6967 10.2426C12.4038 10.5355 12.4038 11.0104 12.6967 11.3033C12.9896 11.5962 13.4645 11.5962 13.7574 11.3033L18 7.06066L22.2426 11.3033C22.5355 11.5962 23.0104 11.5962 23.3033 11.3033C23.5962 11.0104 23.5962 10.5355 23.3033 10.2426L18.5303 5.46967ZM18.75 26L18.75 6L17.25 6L17.25 26L18.75 26Z" fill="#98BA49"/>
</svg>
