<svg width="423" height="511" viewBox="0 0 423 511" fill="none" xmlns="http://www.w3.org/2000/svg">
<path d="M13.2721 464.725L49.315 505.5H394.727V494.797L400.734 464.725L377.706 432.105V402.034L400.734 382.666V350.556L388.219 298.568V275.123V247.09V216.509L400.734 186.438C402.235 163.502 404.338 117.63 400.734 117.63C397.129 117.63 390.889 86.0301 388.219 70.2299L417.754 48.3135V5.5H36.3V30.9842C36.3 39.6488 38.903 59.6284 49.315 70.2299C62.33 83.4816 49.315 98.2625 49.315 117.63C49.315 133.125 40.6383 138.358 36.3 139.037V186.438C36.3 198.67 44.9767 211.582 49.315 216.509L36.3 247.09V275.123L49.315 298.568V350.556C42.9741 360.58 26.8883 383.686 13.2721 395.918C-0.344086 408.15 7.5987 446.886 13.2721 464.725Z" stroke="black" stroke-width="10"/>
</svg>
