<svg width="35" height="35" viewBox="0 0 35 35" fill="none" xmlns="http://www.w3.org/2000/svg">
<rect x="5.20703" y="16.6206" width="11.7586" height="3.2069" transform="rotate(90 5.20703 16.6206)" fill="black"/>
<rect x="32.998" y="16.6206" width="11.7586" height="3.2069" transform="rotate(90 32.998 16.6206)" fill="black"/>
<rect x="1" y="14" width="33" height="3" fill="black"/>
<path d="M17.4697 33.5303C17.7626 33.8232 18.2374 33.8232 18.5303 33.5303L23.3033 28.7574C23.5962 28.4645 23.5962 27.9896 23.3033 27.6967C23.0104 27.4038 22.5355 27.4038 22.2426 27.6967L18 31.9393L13.7574 27.6967C13.4645 27.4038 12.9896 27.4038 12.6967 27.6967C12.4038 27.9896 12.4038 28.4645 12.6967 28.7574L17.4697 33.5303ZM18.5303 1.46967C18.2374 1.17678 17.7626 1.17678 17.4697 1.46967L12.6967 6.24264C12.4038 6.53553 12.4038 7.01041 12.6967 7.3033C12.9896 7.59619 13.4645 7.59619 13.7574 7.3033L18 3.06066L22.2426 7.3033C22.5355 7.59619 23.0104 7.59619 23.3033 7.3033C23.5962 7.01041 23.5962 6.53553 23.3033 6.24264L18.5303 1.46967ZM18.75 33L18.75 2L17.25 2L17.25 33L18.75 33Z" fill="#98BA49"/>
</svg>
