<svg width="35" height="35" viewBox="0 0 35 35" fill="none" xmlns="http://www.w3.org/2000/svg">
<path d="M16.4697 32.5303C16.7626 32.8232 17.2374 32.8232 17.5303 32.5303L22.3033 27.7574C22.5962 27.4645 22.5962 26.9896 22.3033 26.6967C22.0104 26.4038 21.5355 26.4038 21.2426 26.6967L17 30.9393L12.7574 26.6967C12.4645 26.4038 11.9896 26.4038 11.6967 26.6967C11.4038 26.9896 11.4038 27.4645 11.6967 27.7574L16.4697 32.5303ZM17.5303 3.46967C17.2374 3.17678 16.7626 3.17678 16.4697 3.46967L11.6967 8.24264C11.4038 8.53553 11.4038 9.01041 11.6967 9.3033C11.9896 9.59619 12.4645 9.59619 12.7574 9.3033L17 5.06066L21.2426 9.3033C21.5355 9.59619 22.0104 9.59619 22.3033 9.3033C22.5962 9.01041 22.5962 8.53553 22.3033 8.24264L17.5303 3.46967ZM17.75 32L17.75 4L16.25 4L16.25 32L17.75 32Z" fill="#98BA49"/>
</svg>
